<svg xmlns="http://www.w3.org/2000/svg" xmlns:xlink="http://www.w3.org/1999/xlink" width="67" height="67" viewBox="0 0 67 67">
  <defs>
    <clipPath id="clip-path">
      <rect id="Rettangolo_6206" data-name="Rettangolo 6206" width="46.853" height="60.5" fill="none"/>
    </clipPath>
  </defs>
  <g id="Raggruppa_6306" data-name="Raggruppa 6306" transform="translate(-828.25 -286.635)">
    <circle id="Ellisse_411" data-name="Ellisse 411" cx="33.5" cy="33.5" r="33.5" transform="translate(828.25 286.635)" fill="#fff"/>
    <g id="Raggruppa_6293" data-name="Raggruppa 6293" transform="translate(838.762 286.711)">
      <g id="Raggruppa_6292" data-name="Raggruppa 6292" clip-path="url(#clip-path)">
        <path id="Tracciato_618" data-name="Tracciato 618" d="M18.319,6.355s-2.592-3.19-1.5-4.187,1.794.8,1.794.8S17.983.972,19.4,1.122s.766,2.143.766,2.143,1.2-2.094,2.642-1.246-3.126,4.835-3.126,4.835Z" transform="translate(-7.255 -0.488)" fill="#dd7d3c"/>
        <path id="Tracciato_619" data-name="Tracciato 619" d="M16.6,15.946c-4.408,2.745-4.592,12.7-4.532,15.925L14.405,29.5l4.678-2.427c.552-7.159-2.485-11.132-2.485-11.132" transform="translate(-5.285 -6.988)" fill="#ffbbd5"/>
        <path id="Tracciato_620" data-name="Tracciato 620" d="M21.325,11.119c-.676-1.549-1.508-2.627-2.513-2.627-.959,0-2.276,1.057-3.593,2.737a19.237,19.237,0,0,1,6.106-.11" transform="translate(-6.67 -3.722)" fill="#dd7d3c"/>
        <path id="Tracciato_621" data-name="Tracciato 621" d="M11.267,13.129C7.682,17.7,4.093,26.93,7.7,32.325L9.5,30.5c-.06-3.227.124-13.181,4.532-15.925,0,0,3.036,3.973,2.485,11.132L19.814,24s-.714-7.026-2.441-10.981a19.253,19.253,0,0,0-6.106.11" transform="translate(-2.718 -5.622)" fill="#c66524"/>
        <path id="Tracciato_622" data-name="Tracciato 622" d="M51.07,5.02s2-3.588.753-4.382-1.631,1.094-1.631,1.094S50.476-.342,49.108.049s-.386,2.244-.386,2.244S47.183.435,45.9,1.519s3.91,4.225,3.91,4.225Z" transform="translate(-20.029 0)" fill="#dd7d3c"/>
        <path id="Tracciato_623" data-name="Tracciato 623" d="M54.825,14.432c4.814,1.946,6.706,11.72,7.2,14.909l-2.711-1.93-5.025-1.586c-1.775-6.958.534-11.393.534-11.393" transform="translate(-23.499 -6.325)" fill="#ffbbd5"/>
        <path id="Tracciato_624" data-name="Tracciato 624" d="M49.428,10.346c.4-1.643,1.034-2.847,2.024-3.02.945-.165,2.424.65,4.01,2.078a19.237,19.237,0,0,0-6.034.941" transform="translate(-21.662 -3.202)" fill="#dd7d3c"/>
        <path id="Tracciato_625" data-name="Tracciato 625" d="M54.962,11.043c4.318,3.888,9.44,12.362,6.812,18.3L59.69,27.856c-.5-3.189-2.388-12.963-7.2-14.909,0,0-2.308,4.436-.534,11.393l-3.542-1.118s-.5-7.044.517-11.237a19.253,19.253,0,0,1,6.034-.941" transform="translate(-21.162 -4.84)" fill="#c66524"/>
        <path id="Tracciato_626" data-name="Tracciato 626" d="M5.324,46.1A40.229,40.229,0,0,1,11.33,34.225,22.618,22.618,0,0,0,1.661,46.291,24.424,24.424,0,0,1,5.324,46.1" transform="translate(-0.728 -14.999)" fill="#c66524"/>
        <path id="Tracciato_627" data-name="Tracciato 627" d="M12.906,43.654c10.717,2.492,11.664,13.7,11.664,13.7h5.721A15.284,15.284,0,0,1,37.979,43.4,22.731,22.731,0,0,1,48.5,40.7C44.608,32.539,35.393,27.3,27.012,27.3a24.449,24.449,0,0,0-12.825,3.887A40.222,40.222,0,0,0,8.182,43.066a23.062,23.062,0,0,1,4.724.588" transform="translate(-3.586 -11.966)" fill="#dd7d3c"/>
        <path id="Tracciato_628" data-name="Tracciato 628" d="M49.569,58.69a19.331,19.331,0,0,0-1.888-7.541,22.724,22.724,0,0,0-10.524,2.706A15.284,15.284,0,0,0,29.468,67.8H23.748S22.8,56.6,12.083,54.1a23.062,23.062,0,0,0-4.724-.588C5.81,58.773,5.542,64.949,9.538,70.241c9.072,12.015,27.375,10.216,39.341-1.969a36.883,36.883,0,0,0,.69-9.581" transform="translate(-2.764 -22.416)" fill="#ffd9bd"/>
        <path id="Tracciato_629" data-name="Tracciato 629" d="M6.774,72.082c-4-5.291-3.727-11.467-2.178-16.725a24.423,24.423,0,0,0-3.663.192,19.152,19.152,0,0,0-.885,4.983C-.475,72.869,2.989,84.757,23.426,84.757c14.972,0,20.83-6.382,22.689-14.645C34.149,82.3,15.845,84.1,6.774,72.082" transform="translate(0 -24.258)" fill="#efc3a5"/>
        <path id="Tracciato_630" data-name="Tracciato 630" d="M65.175,81.371a2.654,2.654,0,1,0,2.654-2.654,2.654,2.654,0,0,0-2.654,2.654" transform="translate(-28.563 -34.498)" fill="#f97da0"/>
        <path id="Tracciato_631" data-name="Tracciato 631" d="M12.587,81.587a2.654,2.654,0,1,0-1.711,3.341,2.655,2.655,0,0,0,1.711-3.341" transform="translate(-3.246 -34.949)" fill="#f97da0"/>
        <path id="Tracciato_632" data-name="Tracciato 632" d="M36.022,78.836c-.736.514,3.365,2.654,3.365,2.654s3.664-1.869,3.589-2.654-4.973-1.383-6.954,0" transform="translate(-15.748 -34.187)" fill="#996231"/>
        <path id="Tracciato_633" data-name="Tracciato 633" d="M39.852,85.557h-.224c-2.8,0-3.258-.822-3.3-.916l.4-.2c0,.006.39.624,2.673.662V80.547h.449Z" transform="translate(-15.92 -35.3)" fill="#996231"/>
        <path id="Tracciato_634" data-name="Tracciato 634" d="M42.2,88.4v-.449c2.537,0,3.014-.908,3.018-.917l.408.185c-.021.048-.553,1.181-3.427,1.181" transform="translate(-18.495 -38.143)" fill="#996231"/>
        <path id="Tracciato_635" data-name="Tracciato 635" d="M21.616,71.23a1.6,1.6,0,1,0,1.6-1.6,1.6,1.6,0,0,0-1.6,1.6" transform="translate(-9.473 -30.517)" fill="#3f3f3f"/>
        <path id="Tracciato_636" data-name="Tracciato 636" d="M56.356,71.23a1.6,1.6,0,1,0,1.6-1.6,1.6,1.6,0,0,0-1.6,1.6" transform="translate(-24.698 -30.517)" fill="#3f3f3f"/>
      </g>
    </g>
  </g>
</svg>
