<svg xmlns="http://www.w3.org/2000/svg" xmlns:xlink="http://www.w3.org/1999/xlink" width="283.985" height="259.782" viewBox="0 0 283.985 259.782">
  <defs>
    <clipPath id="clip-path">
      <rect id="Rettangolo_6205" data-name="Rettangolo 6205" width="194.824" height="160.378" fill="none"/>
    </clipPath>
  </defs>
  <g id="Raggruppa_6300" data-name="Raggruppa 6300" transform="translate(-855.279 -135.538)">
    <path id="Tracciato_585" data-name="Tracciato 585" d="M319.915,177.477A129.891,129.891,0,1,1,190.024,47.586,129.891,129.891,0,0,1,319.915,177.477" transform="translate(816.597 87.952)" fill="#ffe1d2" opacity="0.384"/>
    <path id="Tracciato_586" data-name="Tracciato 586" d="M399.925,317.517a2.752,2.752,0,0,1-.005-5.5,2.829,2.829,0,0,1,.5.046,2.752,2.752,0,0,1-.5,5.458m-.005-3.878a1.132,1.132,0,1,0,.208.019,1.177,1.177,0,0,0-.208-.019" transform="translate(736.589 21.454)"/>
    <path id="Tracciato_593" data-name="Tracciato 593" d="M399.925,317.517a2.752,2.752,0,0,1-.005-5.5,2.829,2.829,0,0,1,.5.046,2.752,2.752,0,0,1-.5,5.458m-.005-3.878a1.132,1.132,0,1,0,.208.019,1.177,1.177,0,0,0-.208-.019" transform="translate(603.944 -155.546)"/>
    <path id="Tracciato_590" data-name="Tracciato 590" d="M402.823,323.308a5.647,5.647,0,0,1-.011-11.294,5.8,5.8,0,0,1,1.034.094,5.647,5.647,0,0,1-1.023,11.2m-.011-7.958a2.323,2.323,0,1,0,.426.039,2.413,2.413,0,0,0-.426-.039" transform="translate(458.108 -57.879)"/>
    <path id="Tracciato_587" data-name="Tracciato 587" d="M328.287,382.641a2.752,2.752,0,0,1-.005-5.5,2.829,2.829,0,0,1,.5.046,2.752,2.752,0,0,1-.5,5.457m-.005-3.878a1.132,1.132,0,1,0,.208.019,1.177,1.177,0,0,0-.208-.019" transform="translate(738.643 -10.032)"/>
    <path id="Tracciato_588" data-name="Tracciato 588" d="M399.228,355.506a1.223,1.223,0,0,1-.236-.022,1.3,1.3,0,0,1-1.042-1.512l1.769-9.572a1.3,1.3,0,1,1,2.552.472l-1.769,9.572a1.3,1.3,0,0,1-1.274,1.062" transform="translate(705.328 0.6)"/>
    <path id="Tracciato_589" data-name="Tracciato 589" d="M405.235,351.268a1.242,1.242,0,0,1-.236-.022l-9.572-1.769a1.3,1.3,0,0,1,.472-2.552l9.571,1.769a1.3,1.3,0,0,1-.234,2.574" transform="translate(704.991 0.937)"/>
    <g id="Raggruppa_6289" data-name="Raggruppa 6289" transform="translate(-193.035 -164)">
      <path id="Tracciato_591" data-name="Tracciato 591" d="M399.228,355.506a1.223,1.223,0,0,1-.236-.022,1.3,1.3,0,0,1-1.042-1.512l1.769-9.572a1.3,1.3,0,1,1,2.552.472l-1.769,9.572a1.3,1.3,0,0,1-1.274,1.062" transform="translate(705.286 -12.4)"/>
      <path id="Tracciato_592" data-name="Tracciato 592" d="M405.235,351.268a1.242,1.242,0,0,1-.236-.022l-9.572-1.769a1.3,1.3,0,0,1,.472-2.552l9.571,1.769a1.3,1.3,0,0,1-.234,2.574" transform="translate(704.949 -12.063)"/>
    </g>
    <g id="Raggruppa_6291" data-name="Raggruppa 6291" transform="translate(909.208 179.659)">
      <g id="Raggruppa_6291-2" data-name="Raggruppa 6291" clip-path="url(#clip-path)">
        <path id="Tracciato_594" data-name="Tracciato 594" d="M179.98,148.248,26.406,160.42c-8.188.649-15.282-4.591-15.845-11.7L1.517,34.618c-.563-7.11,5.617-13.4,13.8-14.05L168.9,8.4c8.187-.647,15.28,4.59,15.844,11.7l9.044,114.1c.563,7.109-5.617,13.4-13.8,14.05" transform="translate(-0.238 -1.34)" fill="#ffcd97"/>
        <path id="Tracciato_595" data-name="Tracciato 595" d="M184.74,20.1c-.562-7.111-7.657-12.348-15.844-11.7L15.322,20.569c-8.188.649-14.368,6.939-13.8,14.049L2.543,47.552,185.765,33.031Z" transform="translate(-0.238 -1.34)" fill="#fff"/>
        <line id="Linea_153" data-name="Linea 153" x1="183.229" y2="14.522" transform="translate(2.305 31.777)" fill="#fff"/>
        <rect id="Rettangolo_6188" data-name="Rettangolo 6188" width="183.803" height="2.488" transform="matrix(0.997, -0.079, 0.079, 0.997, 2.206, 45.053)"/>
        <path id="Tracciato_596" data-name="Tracciato 596" d="M24.8,161.482c-8.378,0-15.134-5.548-15.717-12.9L.039,34.478C-.578,26.7,6.126,19.793,14.986,19.089L168.56,6.919c.487-.039.98-.058,1.465-.058,8.378,0,15.135,5.545,15.717,12.9l9.044,114.1c.617,7.782-6.088,14.685-14.945,15.388L26.266,161.422c-.487.039-.98.06-1.466.06M170.024,9.348c-.42,0-.847.017-1.268.051L15.182,21.57c-7.491.6-13.171,6.3-12.662,12.713l9.043,114.1c.479,6.049,6.17,10.61,13.237,10.61.421,0,.848-.017,1.271-.05l153.574-12.172c7.489-.593,13.169-6.3,12.661-12.712l-9.044-114.1c-.478-6.048-6.169-10.609-13.237-10.609" transform="translate(0 -1.102)"/>
        <path id="Tracciato_597" data-name="Tracciato 597" d="M65.84,27.189a6.161,6.161,0,1,1-6.628-5.654,6.163,6.163,0,0,1,6.628,5.654" transform="translate(-8.601 -3.457)" fill="#fff"/>
        <path id="Tracciato_598" data-name="Tracciato 598" d="M59.453,34.843a7.439,7.439,0,0,1-7.375-6.821,7.4,7.4,0,0,1,6.8-7.966A7.4,7.4,0,1,1,60.044,34.82c-.2.016-.394.024-.591.024m.015-12.322q-.2,0-.4.015a4.916,4.916,0,0,0-4.515,5.29,4.917,4.917,0,1,0,4.91-5.3" transform="translate(-8.363 -3.218)"/>
        <path id="Tracciato_599" data-name="Tracciato 599" d="M60.3,28.682h0A3.076,3.076,0,0,1,57,25.868L56.08,14.251a3.066,3.066,0,0,1,6.114-.483l.92,11.616a3.075,3.075,0,0,1-2.814,3.3" transform="translate(-9.008 -1.758)" fill="#ffcd97"/>
        <path id="Tracciato_600" data-name="Tracciato 600" d="M169.7,18.957a6.161,6.161,0,1,1-6.628-5.654,6.16,6.16,0,0,1,6.628,5.654" transform="translate(-25.287 -2.134)" fill="#fff"/>
        <path id="Tracciato_601" data-name="Tracciato 601" d="M163.316,26.611a7.438,7.438,0,0,1-7.375-6.819,7.405,7.405,0,0,1,6.8-7.967,7.443,7.443,0,0,1,7.967,6.8,7.405,7.405,0,0,1-6.8,7.967c-.2.015-.4.023-.592.023m.014-12.321c-.131,0-.264.005-.4.015a4.92,4.92,0,1,0,.4-.015" transform="translate(-25.048 -1.896)"/>
        <path id="Tracciato_602" data-name="Tracciato 602" d="M164.164,20.45h0a3.075,3.075,0,0,1-3.3-2.814l-.92-11.616a3.066,3.066,0,1,1,6.112-.484l.921,11.616a3.075,3.075,0,0,1-2.814,3.3" transform="translate(-25.694 -0.436)" fill="#ffcd97"/>
        <path id="Tracciato_603" data-name="Tracciato 603" d="M203.927,16.245A6.161,6.161,0,1,1,197.3,10.59a6.161,6.161,0,0,1,6.628,5.655" transform="translate(-30.785 -1.698)" fill="#fff"/>
        <path id="Tracciato_604" data-name="Tracciato 604" d="M197.54,23.9a7.4,7.4,0,1,1,.593-.023c-.2.015-.4.023-.593.023m.013-12.322c-.131,0-.263.005-.395.016a4.909,4.909,0,1,0,.395-.016" transform="translate(-30.547 -1.46)"/>
        <path id="Tracciato_605" data-name="Tracciato 605" d="M198.389,17.738h0a3.075,3.075,0,0,1-3.3-2.816l-.921-11.614a3.066,3.066,0,1,1,6.112-.484l.921,11.615a3.076,3.076,0,0,1-2.814,3.3" transform="translate(-31.192 0)" fill="#ffcd97"/>
        <path id="Tracciato_606" data-name="Tracciato 606" d="M31.367,29.921a6.161,6.161,0,1,1-6.63-5.654,6.162,6.162,0,0,1,6.63,5.654" transform="translate(-3.063 -3.895)" fill="#fff"/>
        <path id="Tracciato_607" data-name="Tracciato 607" d="M24.978,37.575a7.437,7.437,0,0,1-7.374-6.82,7.4,7.4,0,0,1,6.8-7.966,7.4,7.4,0,0,1,1.171,14.763c-.2.015-.4.023-.593.023m.016-12.321c-.131,0-.264.005-.4.016a4.916,4.916,0,0,0-4.513,5.289,4.917,4.917,0,1,0,4.909-5.3" transform="translate(-2.824 -3.657)"/>
        <path id="Tracciato_608" data-name="Tracciato 608" d="M25.828,31.414h0a3.075,3.075,0,0,1-3.3-2.814l-.921-11.615A3.066,3.066,0,1,1,27.72,16.5l.921,11.615a3.076,3.076,0,0,1-2.813,3.3" transform="translate(-3.47 -2.197)" fill="#ffcd97"/>
        <path id="Tracciato_609" data-name="Tracciato 609" d="M100.534,24.44a6.161,6.161,0,1,1-6.627-5.656,6.162,6.162,0,0,1,6.627,5.656" transform="translate(-14.175 -3.015)" fill="#fff"/>
        <path id="Tracciato_610" data-name="Tracciato 610" d="M94.149,32.092a7.4,7.4,0,1,1,.592-.023q-.3.023-.592.023m.013-12.322c-.13,0-.262.005-.394.015a4.919,4.919,0,1,0,.394-.015" transform="translate(-13.937 -2.777)"/>
        <path id="Tracciato_611" data-name="Tracciato 611" d="M95,25.932h0a3.075,3.075,0,0,1-3.3-2.814L90.776,11.5a3.066,3.066,0,1,1,6.113-.484l.92,11.616A3.075,3.075,0,0,1,95,25.932" transform="translate(-14.582 -1.316)" fill="#ffcd97"/>
        <path id="Tracciato_612" data-name="Tracciato 612" d="M135.23,21.69a6.161,6.161,0,1,1-6.628-5.656,6.162,6.162,0,0,1,6.628,5.656" transform="translate(-19.748 -2.573)" fill="#fff"/>
        <path id="Tracciato_613" data-name="Tracciato 613" d="M128.843,29.344a7.409,7.409,0,1,1,.593-.024q-.3.024-.593.024m.013-12.322c-.131,0-.263.005-.395.015a4.921,4.921,0,1,0,.395-.015" transform="translate(-19.51 -2.335)"/>
        <path id="Tracciato_614" data-name="Tracciato 614" d="M129.691,23.182h0a3.075,3.075,0,0,1-3.3-2.814l-.921-11.616a3.066,3.066,0,0,1,6.114-.484l.92,11.616a3.075,3.075,0,0,1-2.813,3.3" transform="translate(-20.156 -0.875)" fill="#ffcd97"/>
        <path id="Tracciato_615" data-name="Tracciato 615" d="M186.212,138.742a6.094,6.094,0,0,1-5.593,6.557L28.634,157.344a6.093,6.093,0,0,1-6.556-5.593l-6.642-83.8A6.093,6.093,0,0,1,21.03,61.4L173.015,49.35a6.1,6.1,0,0,1,6.556,5.593Z" transform="translate(-2.477 -7.925)" fill="#fff"/>
        <rect id="Rettangolo_6189" data-name="Rettangolo 6189" width="1.439" height="100.09" transform="translate(34.558 51.373) rotate(-4.547)" fill="#ffcd97"/>
        <rect id="Rettangolo_6190" data-name="Rettangolo 6190" width="1.44" height="100.09" transform="matrix(0.997, -0.079, 0.079, 0.997, 83.509, 47.493)" fill="#ffcd97"/>
        <rect id="Rettangolo_6191" data-name="Rettangolo 6191" width="1.439" height="100.091" transform="translate(106.372 45.682) rotate(-4.55)" fill="#ffcd97"/>
        <rect id="Rettangolo_6192" data-name="Rettangolo 6192" width="1.44" height="100.091" transform="translate(129.542 43.846) rotate(-4.581)" fill="#ffcd97"/>
        <rect id="Rettangolo_6193" data-name="Rettangolo 6193" width="1.439" height="100.09" transform="translate(153.078 41.98) rotate(-4.517)" fill="#ffcd97"/>
        <rect id="Rettangolo_6194" data-name="Rettangolo 6194" width="1.439" height="100.091" transform="translate(59.097 49.428) rotate(-4.517)" fill="#ffcd97"/>
        <rect id="Rettangolo_6195" data-name="Rettangolo 6195" width="167.186" height="1.501" transform="translate(12.346 52.296) rotate(-4.554)" fill="#ffcd97"/>
        <rect id="Rettangolo_6196" data-name="Rettangolo 6196" width="167.186" height="1.501" transform="translate(16.383 103.218) rotate(-4.492)" fill="#ffcd97"/>
        <rect id="Rettangolo_6197" data-name="Rettangolo 6197" width="167.187" height="1.501" transform="translate(18.278 127.135) rotate(-4.524)" fill="#ffcd97"/>
        <rect id="Rettangolo_6198" data-name="Rettangolo 6198" width="167.186" height="1.5" transform="translate(20.192 151.278) rotate(-4.492)" fill="#ffcd97"/>
        <rect id="Rettangolo_6199" data-name="Rettangolo 6199" width="167.186" height="1.501" transform="translate(14.369 77.808) rotate(-4.522)" fill="#ffcd97"/>
        <path id="Tracciato_616" data-name="Tracciato 616" d="M37.114,62.187,21.03,63.462a6.094,6.094,0,0,0-5.593,6.556l1.41,17.8,22.16-1.757Z" transform="translate(-2.477 -9.99)" fill="#f75959"/>
        <rect id="Rettangolo_6200" data-name="Rettangolo 6200" width="22.115" height="24.031" transform="translate(133.096 69.918) rotate(-4.531)" fill="#fff"/>
        <rect id="Rettangolo_6201" data-name="Rettangolo 6201" width="23.15" height="24.032" transform="translate(38.075 77.353) rotate(-4.531)" fill="#fff"/>
        <rect id="Rettangolo_6202" data-name="Rettangolo 6202" width="21.527" height="21.325" transform="translate(90.999 122.888) rotate(-4.531)" fill="#fff"/>
        <rect id="Rettangolo_6203" data-name="Rettangolo 6203" width="22.117" height="22.445" transform="matrix(0.997, -0.079, 0.079, 0.997, 158.593, 93.511)" fill="#f75959"/>
        <path id="Tracciato_617" data-name="Tracciato 617" d="M21.918,152.929l1.2,15.184a6.092,6.092,0,0,0,6.555,5.593l16.084-1.274-1.685-21.259Z" transform="translate(-3.521 -24.286)" fill="#f75959"/>
        <rect id="Rettangolo_6204" data-name="Rettangolo 6204" width="21.526" height="23.773" transform="translate(87.005 73.571) rotate(-4.531)" fill="#f75959"/>
      </g>
    </g>
  </g>
</svg>
