<svg xmlns="http://www.w3.org/2000/svg" xmlns:xlink="http://www.w3.org/1999/xlink" width="259.783" height="259.782" viewBox="0 0 259.783 259.782">
  <defs>
    <clipPath id="clip-path">
      <rect id="Rettangolo_6186" data-name="Rettangolo 6186" width="175.466" height="238.395" fill="none"/>
    </clipPath>
    <clipPath id="clip-path-2">
      <rect id="Rettangolo_6185" data-name="Rettangolo 6185" width="175.022" height="238.384" fill="none"/>
    </clipPath>
    <clipPath id="clip-path-3">
      <rect id="Rettangolo_6184" data-name="Rettangolo 6184" width="22.623" height="12.233" fill="none"/>
    </clipPath>
  </defs>
  <g id="Raggruppa_6299" data-name="Raggruppa 6299" transform="translate(-876.729 -135.538)">
    <path id="Tracciato_585" data-name="Tracciato 585" d="M319.915,177.477A129.891,129.891,0,1,1,190.024,47.586,129.891,129.891,0,0,1,319.915,177.477" transform="translate(816.597 87.952)" fill="#ffe1d2" opacity="0.384"/>
    <path id="Tracciato_586" data-name="Tracciato 586" d="M399.925,317.517a2.752,2.752,0,0,1-.005-5.5,2.829,2.829,0,0,1,.5.046,2.752,2.752,0,0,1-.5,5.458m-.005-3.878a1.132,1.132,0,1,0,.208.019,1.177,1.177,0,0,0-.208-.019" transform="translate(704.108 10.454)"/>
    <path id="Tracciato_593" data-name="Tracciato 593" d="M399.925,317.517a2.752,2.752,0,0,1-.005-5.5,2.829,2.829,0,0,1,.5.046,2.752,2.752,0,0,1-.5,5.458m-.005-3.878a1.132,1.132,0,1,0,.208.019,1.177,1.177,0,0,0-.208-.019" transform="translate(533.366 -71.546)"/>
    <path id="Tracciato_590" data-name="Tracciato 590" d="M402.823,323.308a5.647,5.647,0,0,1-.011-11.294,5.8,5.8,0,0,1,1.034.094,5.647,5.647,0,0,1-1.023,11.2m-.011-7.958a2.323,2.323,0,1,0,.426.039,2.413,2.413,0,0,0-.426-.039" transform="translate(509.108 -110.546)"/>
    <path id="Tracciato_587" data-name="Tracciato 587" d="M328.287,382.641a2.752,2.752,0,0,1-.005-5.5,2.829,2.829,0,0,1,.5.046,2.752,2.752,0,0,1-.5,5.457m-.005-3.878a1.132,1.132,0,1,0,.208.019,1.177,1.177,0,0,0-.208-.019" transform="translate(742.643 -21.032)"/>
    <path id="Tracciato_588" data-name="Tracciato 588" d="M399.228,355.506a1.223,1.223,0,0,1-.236-.022,1.3,1.3,0,0,1-1.042-1.512l1.769-9.572a1.3,1.3,0,1,1,2.552.472l-1.769,9.572a1.3,1.3,0,0,1-1.274,1.062" transform="translate(705.328 0.6)"/>
    <path id="Tracciato_589" data-name="Tracciato 589" d="M405.235,351.268a1.242,1.242,0,0,1-.236-.022l-9.572-1.769a1.3,1.3,0,0,1,.472-2.552l9.571,1.769a1.3,1.3,0,0,1-.234,2.574" transform="translate(704.991 0.937)"/>
    <g id="Raggruppa_6288" data-name="Raggruppa 6288" transform="translate(917.576 156.925)">
      <g id="Raggruppa_6287" data-name="Raggruppa 6287" clip-path="url(#clip-path)">
        <g id="Raggruppa_6286" data-name="Raggruppa 6286" transform="translate(0 0.011)">
          <g id="Raggruppa_6285" data-name="Raggruppa 6285" clip-path="url(#clip-path-2)">
            <path id="Tracciato_509" data-name="Tracciato 509" d="M205.558,239.851c-9.388,4-18.2,7.7-26.069,10.95q-4.159,2.547-8.027,5.037l1.171-.5c4.441-1.934,9.49-4.263,14.652-6.7,6.21-2.935,12.583-6.029,18.273-8.782" transform="translate(-88.097 -123.245)" fill="#fff" fill-rule="evenodd"/>
            <path id="Tracciato_510" data-name="Tracciato 510" d="M205.558,239.851c-9.388,4-18.2,7.7-26.069,10.95q-4.159,2.547-8.027,5.037l1.171-.5c4.441-1.934,9.49-4.263,14.652-6.7,6.21-2.935,12.583-6.029,18.273-8.782" transform="translate(-88.097 -123.245)" fill="#fff" fill-rule="evenodd"/>
            <path id="Tracciato_511" data-name="Tracciato 511" d="M205.558,239.851c-9.388,4-18.2,7.7-26.069,10.95q-4.159,2.547-8.027,5.037l1.171-.5c4.441-1.934,9.49-4.263,14.652-6.7,6.21-2.935,12.583-6.029,18.273-8.782" transform="translate(-88.097 -123.245)" fill="#fff" fill-rule="evenodd"/>
            <path id="Tracciato_512" data-name="Tracciato 512" d="M205.558,239.851c-9.388,4-18.2,7.7-26.069,10.95q-4.159,2.547-8.027,5.037l1.171-.5c4.441-1.934,9.49-4.263,14.652-6.7,6.21-2.935,12.583-6.029,18.273-8.782" transform="translate(-88.097 -123.245)" fill="#fff" fill-rule="evenodd"/>
            <path id="Tracciato_513" data-name="Tracciato 513" d="M205.558,239.851c-9.388,4-18.2,7.7-26.069,10.95q-4.159,2.547-8.027,5.037l1.171-.5c4.441-1.934,9.49-4.263,14.652-6.7,6.21-2.935,12.583-6.029,18.273-8.782" transform="translate(-88.097 -123.245)" fill="#fff" fill-rule="evenodd"/>
            <path id="Tracciato_514" data-name="Tracciato 514" d="M205.558,239.851c-9.388,4-18.2,7.7-26.069,10.95q-4.159,2.547-8.027,5.037l1.171-.5c4.441-1.934,9.49-4.263,14.652-6.7,6.21-2.935,12.583-6.029,18.273-8.782" transform="translate(-88.097 -123.245)" fill="#fff" fill-rule="evenodd"/>
            <path id="Tracciato_515" data-name="Tracciato 515" d="M205.558,239.851c-9.388,4-18.2,7.7-26.069,10.95q-4.159,2.547-8.027,5.037l1.171-.5c4.441-1.934,9.49-4.263,14.652-6.7,6.21-2.935,12.583-6.029,18.273-8.782" transform="translate(-88.097 -123.245)" fill="#fff" fill-rule="evenodd"/>
            <path id="Tracciato_516" data-name="Tracciato 516" d="M205.558,239.851c-9.388,4-18.2,7.7-26.069,10.95q-4.159,2.547-8.027,5.037l1.171-.5c4.441-1.934,9.49-4.263,14.652-6.7,6.21-2.935,12.583-6.029,18.273-8.782" transform="translate(-88.097 -123.245)" fill="#fff" fill-rule="evenodd"/>
            <path id="Tracciato_517" data-name="Tracciato 517" d="M205.558,239.851c-9.388,4-18.2,7.7-26.069,10.95q-4.159,2.547-8.027,5.037l1.171-.5c4.441-1.934,9.49-4.263,14.652-6.7,6.21-2.935,12.583-6.029,18.273-8.782" transform="translate(-88.097 -123.245)" fill="#fff" fill-rule="evenodd"/>
            <path id="Tracciato_518" data-name="Tracciato 518" d="M205.558,239.851c-9.388,4-18.2,7.7-26.069,10.95q-4.159,2.547-8.027,5.037l1.171-.5c4.441-1.934,9.49-4.263,14.652-6.7,6.21-2.935,12.583-6.029,18.273-8.782" transform="translate(-88.097 -123.245)" fill="#fff" fill-rule="evenodd"/>
            <path id="Tracciato_519" data-name="Tracciato 519" d="M205.558,239.851c-9.388,4-18.2,7.7-26.069,10.95q-4.159,2.547-8.027,5.037l1.171-.5c4.441-1.934,9.49-4.263,14.652-6.7,6.21-2.935,12.583-6.029,18.273-8.782" transform="translate(-88.097 -123.245)" fill="#fff" fill-rule="evenodd"/>
            <path id="Tracciato_520" data-name="Tracciato 520" d="M205.558,239.851c-9.388,4-18.2,7.7-26.069,10.95q-4.159,2.547-8.027,5.037l1.171-.5c4.441-1.934,9.49-4.263,14.652-6.7,6.21-2.935,12.583-6.029,18.273-8.782" transform="translate(-88.097 -123.245)" fill="#fff" fill-rule="evenodd"/>
            <path id="Tracciato_521" data-name="Tracciato 521" d="M205.558,239.851c-9.388,4-18.2,7.7-26.069,10.95q-4.159,2.547-8.027,5.037l1.171-.5c4.441-1.934,9.49-4.263,14.652-6.7,6.21-2.935,12.583-6.029,18.273-8.782" transform="translate(-88.097 -123.245)" fill="#fff" fill-rule="evenodd"/>
            <path id="Tracciato_522" data-name="Tracciato 522" d="M205.558,239.851c-9.388,4-18.2,7.7-26.069,10.95q-4.159,2.547-8.027,5.037l1.171-.5c4.441-1.934,9.49-4.263,14.652-6.7,6.21-2.935,12.583-6.029,18.273-8.782" transform="translate(-88.097 -123.245)" fill="#fff" fill-rule="evenodd"/>
            <path id="Tracciato_523" data-name="Tracciato 523" d="M205.558,239.851c-9.388,4-18.2,7.7-26.069,10.95q-4.159,2.547-8.027,5.037l1.171-.5c4.441-1.934,9.49-4.263,14.652-6.7,6.21-2.935,12.583-6.029,18.273-8.782" transform="translate(-88.097 -123.245)" fill="#fff" fill-rule="evenodd"/>
            <path id="Tracciato_524" data-name="Tracciato 524" d="M205.558,239.851c-9.388,4-18.2,7.7-26.069,10.95q-4.159,2.547-8.027,5.037l1.171-.5c4.441-1.934,9.49-4.263,14.652-6.7,6.21-2.935,12.583-6.029,18.273-8.782" transform="translate(-88.097 -123.245)" fill="#fff" fill-rule="evenodd"/>
            <path id="Tracciato_525" data-name="Tracciato 525" d="M205.558,239.851c-9.388,4-18.2,7.7-26.069,10.95q-4.159,2.547-8.027,5.037l1.171-.5c4.441-1.934,9.49-4.263,14.652-6.7,6.21-2.935,12.583-6.029,18.273-8.782" transform="translate(-88.097 -123.245)" fill="#fff" fill-rule="evenodd"/>
            <path id="Tracciato_526" data-name="Tracciato 526" d="M205.558,239.851c-9.388,4-18.2,7.7-26.069,10.95q-4.159,2.547-8.027,5.037l1.171-.5c4.441-1.934,9.49-4.263,14.652-6.7,6.21-2.935,12.583-6.029,18.273-8.782" transform="translate(-88.097 -123.245)" fill="#fff" fill-rule="evenodd"/>
            <path id="Tracciato_527" data-name="Tracciato 527" d="M205.558,239.851c-9.388,4-18.2,7.7-26.069,10.95q-4.159,2.547-8.027,5.037l1.171-.5c4.441-1.934,9.49-4.263,14.652-6.7,6.21-2.935,12.583-6.029,18.273-8.782" transform="translate(-88.097 -123.245)" fill="#fff" fill-rule="evenodd"/>
            <path id="Tracciato_528" data-name="Tracciato 528" d="M205.558,239.851c-9.388,4-18.2,7.7-26.069,10.95q-4.159,2.547-8.027,5.037l1.171-.5c4.441-1.934,9.49-4.263,14.652-6.7,6.21-2.935,12.583-6.029,18.273-8.782" transform="translate(-88.097 -123.245)" fill="#fff" fill-rule="evenodd"/>
            <path id="Tracciato_529" data-name="Tracciato 529" d="M205.558,239.851c-9.388,4-18.2,7.7-26.069,10.95q-4.159,2.547-8.027,5.037l1.171-.5c4.441-1.934,9.49-4.263,14.652-6.7,6.21-2.935,12.583-6.029,18.273-8.782" transform="translate(-88.097 -123.245)" fill="#fff" fill-rule="evenodd"/>
            <path id="Tracciato_530" data-name="Tracciato 530" d="M205.558,239.851c-9.388,4-18.2,7.7-26.069,10.95q-4.159,2.547-8.027,5.037l1.171-.5c4.441-1.934,9.49-4.263,14.652-6.7,6.21-2.935,12.583-6.029,18.273-8.782" transform="translate(-88.097 -123.245)" fill="#fff" fill-rule="evenodd"/>
            <path id="Tracciato_531" data-name="Tracciato 531" d="M205.558,239.851c-9.388,4-18.2,7.7-26.069,10.95q-4.159,2.547-8.027,5.037l1.171-.5c4.441-1.934,9.49-4.263,14.652-6.7,6.21-2.935,12.583-6.029,18.273-8.782" transform="translate(-88.097 -123.245)" fill="#fff" fill-rule="evenodd"/>
            <path id="Tracciato_532" data-name="Tracciato 532" d="M205.558,239.851c-9.388,4-18.2,7.7-26.069,10.95q-4.159,2.547-8.027,5.037l1.171-.5c4.441-1.934,9.49-4.263,14.652-6.7,6.21-2.935,12.583-6.029,18.273-8.782" transform="translate(-88.097 -123.245)" fill="#fff" fill-rule="evenodd"/>
            <path id="Tracciato_533" data-name="Tracciato 533" d="M205.558,239.851c-9.388,4-18.2,7.7-26.069,10.95q-4.159,2.547-8.027,5.037l1.171-.5c4.441-1.934,9.49-4.263,14.652-6.7,6.21-2.935,12.583-6.029,18.273-8.782" transform="translate(-88.097 -123.245)" fill="#fff" fill-rule="evenodd"/>
            <path id="Tracciato_534" data-name="Tracciato 534" d="M205.558,239.851c-9.388,4-18.2,7.7-26.069,10.95q-4.159,2.547-8.027,5.037l1.171-.5c4.441-1.934,9.49-4.263,14.652-6.7,6.21-2.935,12.583-6.029,18.273-8.782" transform="translate(-88.097 -123.245)" fill="#fff" fill-rule="evenodd"/>
            <path id="Tracciato_535" data-name="Tracciato 535" d="M205.558,239.851c-9.388,4-18.2,7.7-26.069,10.95q-4.159,2.547-8.027,5.037l1.171-.5c4.441-1.934,9.49-4.263,14.652-6.7,6.21-2.935,12.583-6.029,18.273-8.782" transform="translate(-88.097 -123.245)" fill="#fff" fill-rule="evenodd"/>
            <path id="Tracciato_536" data-name="Tracciato 536" d="M205.558,239.851c-9.388,4-18.2,7.7-26.069,10.95q-4.159,2.547-8.027,5.037l1.171-.5c4.441-1.934,9.49-4.263,14.652-6.7,6.21-2.935,12.583-6.029,18.273-8.782" transform="translate(-88.097 -123.245)" fill="#fff" fill-rule="evenodd"/>
            <path id="Tracciato_537" data-name="Tracciato 537" d="M205.558,239.851c-9.388,4-18.2,7.7-26.069,10.95q-4.159,2.547-8.027,5.037l1.171-.5c4.441-1.934,9.49-4.263,14.652-6.7,6.21-2.935,12.583-6.029,18.273-8.782" transform="translate(-88.097 -123.245)" fill="#fff" fill-rule="evenodd"/>
            <path id="Tracciato_538" data-name="Tracciato 538" d="M205.558,239.851c-9.388,4-18.2,7.7-26.069,10.95q-4.159,2.547-8.027,5.037l1.171-.5c4.441-1.934,9.49-4.263,14.652-6.7,6.21-2.935,12.583-6.029,18.273-8.782" transform="translate(-88.097 -123.245)" fill="#fff" fill-rule="evenodd"/>
            <path id="Tracciato_539" data-name="Tracciato 539" d="M205.558,239.851c-9.388,4-18.2,7.7-26.069,10.95q-4.159,2.547-8.027,5.037l1.171-.5c4.441-1.934,9.49-4.263,14.652-6.7,6.21-2.935,12.583-6.029,18.273-8.782" transform="translate(-88.097 -123.245)" fill="#fff" fill-rule="evenodd"/>
            <path id="Tracciato_540" data-name="Tracciato 540" d="M205.558,239.851c-9.388,4-18.2,7.7-26.069,10.95q-4.159,2.547-8.027,5.037l1.171-.5c4.441-1.934,9.49-4.263,14.652-6.7,6.21-2.935,12.583-6.029,18.273-8.782" transform="translate(-88.097 -123.245)" fill="#fff" fill-rule="evenodd"/>
            <path id="Tracciato_541" data-name="Tracciato 541" d="M205.558,239.851c-9.388,4-18.2,7.7-26.069,10.95q-4.159,2.547-8.027,5.037l1.171-.5c4.441-1.934,9.49-4.263,14.652-6.7,6.21-2.935,12.583-6.029,18.273-8.782" transform="translate(-88.097 -123.245)" fill="#fff" fill-rule="evenodd"/>
            <path id="Tracciato_542" data-name="Tracciato 542" d="M205.558,239.851c-9.388,4-18.2,7.7-26.069,10.95q-4.159,2.547-8.027,5.037l1.171-.5c4.441-1.934,9.49-4.263,14.652-6.7,6.21-2.935,12.583-6.029,18.273-8.782" transform="translate(-88.097 -123.245)" fill="#fff" fill-rule="evenodd"/>
            <path id="Tracciato_543" data-name="Tracciato 543" d="M205.558,239.851c-9.388,4-18.2,7.7-26.069,10.95q-4.159,2.547-8.027,5.037l1.171-.5c4.441-1.934,9.49-4.263,14.652-6.7,6.21-2.935,12.583-6.029,18.273-8.782" transform="translate(-88.097 -123.245)" fill="#fff" fill-rule="evenodd"/>
            <path id="Tracciato_544" data-name="Tracciato 544" d="M205.558,239.851c-9.388,4-18.2,7.7-26.069,10.95q-4.159,2.547-8.027,5.037l1.171-.5c4.441-1.934,9.49-4.263,14.652-6.7,6.21-2.935,12.583-6.029,18.273-8.782" transform="translate(-88.097 -123.245)" fill="#fff" fill-rule="evenodd"/>
            <path id="Tracciato_545" data-name="Tracciato 545" d="M205.558,239.851c-9.388,4-18.2,7.7-26.069,10.95q-4.159,2.547-8.027,5.037l1.171-.5c4.441-1.934,9.49-4.263,14.652-6.7,6.21-2.935,12.583-6.029,18.273-8.782" transform="translate(-88.097 -123.245)" fill="#fff" fill-rule="evenodd"/>
            <path id="Tracciato_546" data-name="Tracciato 546" d="M205.558,239.851c-9.388,4-18.2,7.7-26.069,10.95q-4.159,2.547-8.027,5.037l1.171-.5c4.441-1.934,9.49-4.263,14.652-6.7,6.21-2.935,12.583-6.029,18.273-8.782" transform="translate(-88.097 -123.245)" fill="#fff" fill-rule="evenodd"/>
            <path id="Tracciato_547" data-name="Tracciato 547" d="M205.558,239.851c-9.388,4-18.2,7.7-26.069,10.95q-4.159,2.547-8.027,5.037l1.171-.5c4.441-1.934,9.49-4.263,14.652-6.7,6.21-2.935,12.583-6.029,18.273-8.782" transform="translate(-88.097 -123.245)" fill="#fff" fill-rule="evenodd"/>
            <path id="Tracciato_548" data-name="Tracciato 548" d="M205.558,239.851c-9.388,4-18.2,7.7-26.069,10.95q-4.159,2.547-8.027,5.037l1.171-.5c4.441-1.934,9.49-4.263,14.652-6.7,6.21-2.935,12.583-6.029,18.273-8.782" transform="translate(-88.097 -123.245)" fill="#fff" fill-rule="evenodd"/>
            <path id="Tracciato_549" data-name="Tracciato 549" d="M205.558,239.851c-9.388,4-18.2,7.7-26.069,10.95q-4.159,2.547-8.027,5.037l1.171-.5c4.441-1.934,9.49-4.263,14.652-6.7,6.21-2.935,12.583-6.029,18.273-8.782" transform="translate(-88.097 -123.245)" fill="#fff" fill-rule="evenodd"/>
            <path id="Tracciato_550" data-name="Tracciato 550" d="M205.558,239.851c-9.388,4-18.2,7.7-26.069,10.95q-4.159,2.547-8.027,5.037l1.171-.5c4.441-1.934,9.49-4.263,14.652-6.7,6.21-2.935,12.583-6.029,18.273-8.782" transform="translate(-88.097 -123.245)" fill="#fff" fill-rule="evenodd"/>
            <path id="Tracciato_551" data-name="Tracciato 551" d="M205.558,239.851c-9.388,4-18.2,7.7-26.069,10.95q-4.159,2.547-8.027,5.037l1.171-.5c4.441-1.934,9.49-4.263,14.652-6.7,6.21-2.935,12.583-6.029,18.273-8.782" transform="translate(-88.097 -123.245)" fill="#fff" fill-rule="evenodd"/>
            <path id="Tracciato_552" data-name="Tracciato 552" d="M205.558,239.851c-9.388,4-18.2,7.7-26.069,10.95q-4.159,2.547-8.027,5.037l1.171-.5c4.441-1.934,9.49-4.263,14.652-6.7,6.21-2.935,12.583-6.029,18.273-8.782" transform="translate(-88.097 -123.245)" fill="#fff" fill-rule="evenodd"/>
            <path id="Tracciato_553" data-name="Tracciato 553" d="M205.558,239.851c-9.388,4-18.2,7.7-26.069,10.95q-4.159,2.547-8.027,5.037l1.171-.5c4.441-1.934,9.49-4.263,14.652-6.7,6.21-2.935,12.583-6.029,18.273-8.782" transform="translate(-88.097 -123.245)" fill="#fff" fill-rule="evenodd"/>
            <path id="Tracciato_554" data-name="Tracciato 554" d="M205.558,239.851c-9.388,4-18.2,7.7-26.069,10.95q-4.159,2.547-8.027,5.037l1.171-.5c4.441-1.934,9.49-4.263,14.652-6.7,6.21-2.935,12.583-6.029,18.273-8.782" transform="translate(-88.097 -123.245)" fill="#fff" fill-rule="evenodd"/>
            <path id="Tracciato_555" data-name="Tracciato 555" d="M205.558,239.851c-9.388,4-18.2,7.7-26.069,10.95q-4.159,2.547-8.027,5.037l1.171-.5c4.441-1.934,9.49-4.263,14.652-6.7,6.21-2.935,12.583-6.029,18.273-8.782" transform="translate(-88.097 -123.245)" fill="#fff" fill-rule="evenodd"/>
            <path id="Tracciato_556" data-name="Tracciato 556" d="M205.558,239.851c-9.388,4-18.2,7.7-26.069,10.95q-4.159,2.547-8.027,5.037l1.171-.5c4.441-1.934,9.49-4.263,14.652-6.7,6.21-2.935,12.583-6.029,18.273-8.782" transform="translate(-88.097 -123.245)" fill="#fff" fill-rule="evenodd"/>
            <path id="Tracciato_557" data-name="Tracciato 557" d="M78.551,351.414l-7.293,64.058c31.7,5.51,66.927,4.055,101.31-1.429l-10.4-60.247Z" transform="translate(-36.612 -180.566)" fill="#f4d2c5" fill-rule="evenodd"/>
            <path id="Tracciato_558" data-name="Tracciato 558" d="M69.974,174.922s-21.846.135-29.411,11.106c-6.479,9.394-40.138,68.51-39.037,82.787,1.442,18.7,36,43.837,36,43.837l4.019-29.783c8.466,1.209,25.308,2.533,25.308,2.533l1.937-22.99,38.144-1.154,1.561,24.792s17.69-2.759,24.041-3.658l-3.1-27.869s17.768,22.365,31.512,12.168c13.461-9.986,9.788-62.123,3.543-73.284l-25.9,1.941c-5.008-8.77-10.149-17.48-28.994-20.119ZM38.685,277.39l-6.907-9.53,9.53-22.152c-.237,8.028-1.059,24.805-2.62,31.68" transform="translate(-0.771 -89.885)" fill="#fbcd97" fill-rule="evenodd"/>
            <path id="Tracciato_559" data-name="Tracciato 559" d="M37.314,313.19l-.988-.719C34.9,311.437,1.481,286.922.03,268.1c-.6-7.837,8.777-28.043,16.754-43.613,8.825-17.226,19-34.7,22.41-39.644,3.245-4.706,9.3-8.06,17.986-9.965A63.858,63.858,0,0,1,69.2,173.422h.01l39.668.308.048.007c19.086,2.672,24.379,11.471,29.3,20.079l25.908-1.942.227.406c6.355,11.357,10.089,63.964-3.746,74.227-5.9,4.375-13.421,3.6-21.762-2.249a56.841,56.841,0,0,1-9.2-8.239l2.913,26.225-.7.1c-6.273.888-23.854,3.629-24.031,3.656l-.79.123-1.568-24.886L68.691,262.35l-1.943,23.065-.722-.057c-.164-.013-16.031-1.267-24.627-2.437ZM69.2,174.881c-.423,0-21.587.315-28.81,10.79C33.388,195.83.41,254.052,1.484,267.988c1.264,16.394,29.084,38.293,34.713,42.566l3.952-29.282.727.1c7.352,1.05,21.225,2.2,24.54,2.47l1.93-22.915,39.5-1.195,1.555,24.7c3.37-.524,16.626-2.581,22.56-3.435l-3.3-29.682,1.575,1.981c.174.218,17.491,21.7,30.506,12.036,5.654-4.194,8.886-17.175,8.867-35.615-.016-14.98-2.282-30.393-5.308-36.321l-25.89,1.94-.229-.4c-4.809-8.421-9.781-17.129-28.415-19.751ZM38.27,278.352l-8.1-11.17,11.207-26.049-.114,3.827c-.258,8.634-1.1,25.052-2.64,31.821ZM31.841,267l5.685,7.843c1.118-6.313,1.818-17.855,2.146-26.045Z" transform="translate(-0.001 -89.114)"/>
            <path id="Tracciato_560" data-name="Tracciato 560" d="M134.483,171.093l.243,92.045,41.141.729,2.794-92.789-9.883-2.6-24.113-.891Z" transform="translate(-69.097 -86.117)" fill="#f55959" fill-rule="evenodd"/>
            <path id="Tracciato_561" data-name="Tracciato 561" d="M175.8,263.834l-42.576-.755L132.98,169.8l10.8-3.718.136.005,24.193.894,10.521,2.766Zm-41.121-2.188,39.706.7,2.755-91.489-9.244-2.43-23.9-.883-9.561,3.29Z" transform="translate(-68.325 -85.342)"/>
            <path id="Tracciato_562" data-name="Tracciato 562" d="M56.963,363.78a13.621,13.621,0,0,0-1.507-.514,8.508,8.508,0,0,0-4.836.032.7.7,0,0,0,.318,1.373,9.185,9.185,0,0,1,2.213-.075c.438.028.883.076,1.334.141a15.97,15.97,0,0,1,2.02.4.718.718,0,0,0,.458-1.361" transform="translate(-25.728 -186.484)" fill-rule="evenodd"/>
            <path id="Tracciato_563" data-name="Tracciato 563" d="M60.468,360.2a7.527,7.527,0,0,0-.492-2.231,4.933,4.933,0,0,0-.464-.9,6.418,6.418,0,0,0-2.5-2.15.7.7,0,0,0-.7,1.222,5.667,5.667,0,0,1,1.782,1.836,6.556,6.556,0,0,1,.58,1.132,7.443,7.443,0,0,1,.374,1.278.718.718,0,0,0,1.424-.186" transform="translate(-28.749 -182.321)" fill-rule="evenodd"/>
            <path id="Tracciato_564" data-name="Tracciato 564" d="M252.461,318.618a66.371,66.371,0,0,0,3.421,6.141,47.487,47.487,0,0,0,4.192,5.682,65.467,65.467,0,0,0,10.46,9.37.705.705,0,0,0,.882-1.1l-.021-.016a69.053,69.053,0,0,1-10.043-9.355,54.129,54.129,0,0,1-4.123-5.454,68.653,68.653,0,0,1-3.49-5.921.718.718,0,0,0-1.278.653" transform="translate(-129.673 -163.179)" fill-rule="evenodd"/>
            <path id="Tracciato_565" data-name="Tracciato 565" d="M79.457,259.484s-.738,24.359-1.894,42.239c-.558,8.639-1.175,15.749-1.957,17.746a3.7,3.7,0,0,0,.805,4.124,11.933,11.933,0,0,0,4.964,2.746c7.717,2.539,20.7,2.709,20.7,2.709a.705.705,0,0,0,.023-1.41s-12.7-.253-20.226-2.79a12.6,12.6,0,0,1-3.721-1.828,2.413,2.413,0,0,1-1.029-2.954c.81-2.05,1.562-9.35,2.124-18.233,1.132-17.906,1.647-42.31,1.647-42.31a.718.718,0,1,0-1.435-.037" transform="translate(-38.688 -132.974)" fill-rule="evenodd"/>
            <path id="Tracciato_566" data-name="Tracciato 566" d="M130.543,4.123c-13.553-7.763-25.606,3.629-28.829,10.94-5.278,11.964-1.145,12.886-6.6,20.475-3.692,5.135-8.79,11.824-3.394,21.335,2.99,5.269-4.366,11.733-1.021,19.942l11.99-.3a8.384,8.384,0,0,1,2.188-8.141q-.714,4.835,3.838,7.99l56.324-1.206c2.02-1.879,2.883-3.921,2.091-6.194,2.2,2.035,2.794,4.047,2.3,6.041l7.929-.357c5.706-9.268-8.165-17.243-5.676-21.985,2.26-4.308,5.543-15.315-2.08-21.806-5.906-5.028-2.806-17.432-10.947-24.164-11.593-9.588-28.109-2.57-28.109-2.57" transform="translate(-45.919 -0.793)" fill="#ffcd97" fill-rule="evenodd"/>
            <path id="Tracciato_567" data-name="Tracciato 567" d="M89.444,76.774l-.19-.466c-1.874-4.6-.586-8.623.55-12.173.943-2.945,1.758-5.489.512-7.684-5.507-9.7-.483-16.68,3.186-21.774l.25-.347a14.912,14.912,0,0,0,3.271-8.576,35.419,35.419,0,0,1,3.255-11.768A25.714,25.714,0,0,1,114.718.957a18.315,18.315,0,0,1,15.109,1.577A38.029,38.029,0,0,1,139.409.3c7.5-.747,14.046,1,18.94,5.044,4.6,3.8,5.766,9.352,6.8,14.247.841,4,1.636,7.777,4.159,9.924,7.743,6.593,4.86,17.731,2.253,22.7-.811,1.545.789,3.859,2.642,6.54,2.956,4.277,6.636,9.6,3.01,15.488l-.2.329L167.715,75l.236-.949a4.5,4.5,0,0,0-.606-3.581,7.4,7.4,0,0,1-2.577,4.444l-.2.189-.278.006-56.561,1.211-.194-.135a8.929,8.929,0,0,1-4.191-6.305,7.4,7.4,0,0,0-.713,5.678l.224.885ZM120.514,1.463a17.028,17.028,0,0,0-5.34.88,24.149,24.149,0,0,0-13.562,12.232,34.161,34.161,0,0,0-3.14,11.345,16.282,16.282,0,0,1-3.536,9.263l-.25.348c-3.63,5.039-8.146,11.311-3.1,20.2,1.561,2.751.613,5.713-.392,8.849-1.07,3.342-2.175,6.794-.767,10.711l10.6-.264a9.1,9.1,0,0,1,2.539-7.922l1.617-1.8-.353,2.39c-.426,2.884.667,5.225,3.341,7.15l55.8-1.2c1.768-1.727,2.324-3.44,1.7-5.231l-.964-2.766,2.148,1.991c1.959,1.816,2.855,3.765,2.671,5.807l6.633-.3c2.793-4.951-.367-9.523-3.162-13.567-2.122-3.069-3.954-5.72-2.733-8.047,2.419-4.611,5.134-14.916-1.908-20.911-2.9-2.47-3.747-6.485-4.641-10.735-1.028-4.889-2.092-9.944-6.3-13.423C151.636,1.69,144.535,1.266,139.6,1.752a36.336,36.336,0,0,0-9.536,2.261l-.334.141-.314-.179a17.749,17.749,0,0,0-8.9-2.511" transform="translate(-45.15 -0.011)"/>
            <path id="Tracciato_568" data-name="Tracciato 568" d="M172.691,120.036H152.035s1.065,14.317-.984,19.187a10.958,10.958,0,0,1-4.936,5.786c6.092,11.071,27.033,12.068,33.98.749a14.536,14.536,0,0,1-5.191-6.564c-1.721-5.036-2.213-19.16-2.213-19.16" transform="translate(-75.073 -61.684)" fill="#f4c9c9" fill-rule="evenodd"/>
            <path id="Tracciato_569" data-name="Tracciato 569" d="M162.528,153.753c-.216,0-.432,0-.651-.007-7.788-.185-14.493-3.694-17.5-9.158l-.387-.7.735-.325a10.411,10.411,0,0,0,4.556-5.4c1.956-4.651.939-18.706.928-18.847l-.058-.792h22.16l.025.711c0,.14.508,14.073,2.174,18.946a13.888,13.888,0,0,0,4.9,6.187l.594.393-.372.607c-3.24,5.279-9.6,8.386-17.1,8.386M146.037,144.5c2.915,4.646,8.917,7.6,15.875,7.769,6.851.166,12.955-2.545,16.093-7.107a14.848,14.848,0,0,1-4.89-6.509c-1.533-4.484-2.1-15.693-2.225-18.66H151.731c.194,3.118.742,14.376-1.093,18.736a12.486,12.486,0,0,1-4.6,5.771" transform="translate(-73.982 -60.907)"/>
            <g id="Raggruppa_6284" data-name="Raggruppa 6284" transform="translate(77.239 63.49)" opacity="0.425" style="isolation: isolate">
              <g id="Raggruppa_6283" data-name="Raggruppa 6283">
                <g id="Raggruppa_6282" data-name="Raggruppa 6282" clip-path="url(#clip-path-3)">
                  <path id="Tracciato_570" data-name="Tracciato 570" d="M158.861,142.839c12.975-.243,20.013-4.181,22.623-11.011l-21.639-1.223c-.056,2.307-.188,4.742-.42,7.29q-.234,2.564-.564,4.943" transform="translate(-158.861 -130.606)" fill="#f7907f" fill-rule="evenodd"/>
                </g>
              </g>
            </g>
            <path id="Tracciato_571" data-name="Tracciato 571" d="M150.97,25.868c-17.032.486-22.044,17.819-21.521,32.686.53,15.051,7.206,26.292,24.31,25.891,15.225-.357,22.212-13.144,22.093-25.8-.159-16.67-5.235-33.333-24.882-32.774" transform="translate(-66.492 -13.294)" fill="#f4c9c9" fill-rule="evenodd"/>
            <path id="Tracciato_572" data-name="Tracciato 572" d="M152.109,84.413c-7.87,0-13.939-2.5-18.052-7.424-3.764-4.51-5.819-10.964-6.109-19.182-.406-11.539,2.47-21.472,7.892-27.25a19.68,19.68,0,0,1,14.338-6.19c6.976-.2,12.64,1.742,16.824,5.768,5.722,5.509,8.686,14.837,8.809,27.727a29.434,29.434,0,0,1-5.439,17.961c-4.1,5.442-10.106,8.408-17.366,8.578q-.451.01-.9.011m-1.89-58.588h0A18.27,18.27,0,0,0,136.9,31.556c-5.157,5.5-7.89,15.047-7.5,26.2.407,11.551,4.7,25.2,22.706,25.2.283,0,.568,0,.858-.011,10.757-.251,21.54-8.1,21.381-25.067-.119-12.483-2.932-21.463-8.362-26.69-3.89-3.745-9.2-5.546-15.77-5.361" transform="translate(-65.72 -12.523)"/>
            <path id="Tracciato_573" data-name="Tracciato 573" d="M125.409,34.321l7.182-.49c-.655-1.318.139-3.2,1.4-4.663a6.729,6.729,0,0,0,1.653,4.147l2.747-.483a11.369,11.369,0,0,1,.729-6.6,12.9,12.9,0,0,0,1.736,6.607l8.534-.473a3.337,3.337,0,0,1,.417-3.423,4.919,4.919,0,0,0,2.176,3.428l8.048.016a6.205,6.205,0,0,0,.752-4.891,7.848,7.848,0,0,1,1.591,4.9l2.589.005c1.178-.764,1.7-1.648,1.377-2.689a2.8,2.8,0,0,1,.985,2.694l7.851.015-5.751-22.069-23.192,1.189L126.15,18.906Z" transform="translate(-64.435 -5.325)" fill="#ffcd97" fill-rule="evenodd"/>
            <path id="Tracciato_574" data-name="Tracciato 574" d="M193.5,78.736a7.835,7.835,0,0,0-2.892.951,7.209,7.209,0,0,0-2.364,2,.674.674,0,0,0,.821,1,5.566,5.566,0,0,1,2.357-.519,3.742,3.742,0,0,1,2.2.729.564.564,0,0,0,.717-.871l-.023-.018a4.864,4.864,0,0,0-2.836-1.1c-.127-.008-.255-.011-.383-.01.049-.032.1-.063.155-.094a6.841,6.841,0,0,1,2.4-.928.574.574,0,0,0-.146-1.139Z" transform="translate(-96.657 -40.462)" fill-rule="evenodd"/>
            <path id="Tracciato_575" data-name="Tracciato 575" d="M153.635,78.073a2.623,2.623,0,1,0,2.5,2.742c0-.04,0-.081,0-.122a2.564,2.564,0,0,0-2.5-2.62" transform="translate(-77.527 -40.123)" fill-rule="evenodd"/>
            <path id="Tracciato_576" data-name="Tracciato 576" d="M189.735,64.8a6.784,6.784,0,0,1,1.683-.559,8.719,8.719,0,0,1,1.734-.161,10.83,10.83,0,0,1,2.157.146,12.252,12.252,0,0,1,1.468.345.875.875,0,0,0,.677-1.61,10.937,10.937,0,0,0-2.942-1.065,7.052,7.052,0,0,0-1.382-.135,6.474,6.474,0,0,0-1.4.156,7.769,7.769,0,0,0-2.947,1.361.9.9,0,0,0,.951,1.522Z" transform="translate(-96.788 -31.746)" fill-rule="evenodd"/>
            <path id="Tracciato_577" data-name="Tracciato 577" d="M152.839,64.65a6.83,6.83,0,0,0-1.647-.656,8.731,8.731,0,0,0-1.722-.262,10.783,10.783,0,0,0-2.162.018,12.02,12.02,0,0,0-1.486.259.875.875,0,0,1-.583-1.647,10.906,10.906,0,0,1,3-.89,7.04,7.04,0,0,1,1.387-.054,6.417,6.417,0,0,1,1.387.238,7.763,7.763,0,0,1,2.863,1.532.9.9,0,0,1-1.038,1.464" transform="translate(-74.347 -31.56)" fill-rule="evenodd"/>
            <path id="Tracciato_578" data-name="Tracciato 578" d="M167.233,117.962a5.591,5.591,0,0,0,2.181,1.184,7.368,7.368,0,0,0,2.49.292,7.01,7.01,0,0,0,2.917-.729,7.163,7.163,0,0,0,1.691-1.179.683.683,0,0,1,.988.942,8.074,8.074,0,0,1-3.624,2.431,7.282,7.282,0,0,1-1.883.348,7.583,7.583,0,0,1-2.525-.309,7,7,0,0,1-3.239-2,.7.7,0,0,1,1-.982l0,0" transform="translate(-85.305 -60.288)" fill-rule="evenodd"/>
            <path id="Tracciato_579" data-name="Tracciato 579" d="M172.567,77.078a48.4,48.4,0,0,1-.674,11.193,6.221,6.221,0,0,0,.165,3.081c.447.989,1.487,1.5,3.721,1.211a.528.528,0,0,0-.133-1.047,5.014,5.014,0,0,1-1.905-.023,1.033,1.033,0,0,1-.721-.576,5.249,5.249,0,0,1-.079-2.528,49.382,49.382,0,0,0,.677-11.4.528.528,0,0,0-1.051.089" transform="translate(-88.267 -39.322)" fill-rule="evenodd"/>
            <path id="Tracciato_580" data-name="Tracciato 580" d="M285.027,167.047s-.34-8.958-4.457-15.207c-5.2-7.892-4.517-14.567-3.31-15.432a1.861,1.861,0,0,1,3.043,1.777c-.5,1.937,4.685,8.5,6.475,7.124,3.023-2.331.434-6.876-5.757-8.766a1.7,1.7,0,0,1-.153-3.319c10.092-1.255,11.495,6.189,11.495,6.189,2-9.972,7.629-21.955,11.9-20.213l-5.686,17.892c3.86-7.371,11.127-14.745,13.837-11.544l-8.159,13.322c3.719-2.409,7.385-5.1,11.892-3.383,0,0-8.487,8.185-11.329,13.313s-2.993,16.651-2.993,16.651Z" transform="translate(-142.017 -61.168)" fill="#f4c9c9" fill-rule="evenodd"/>
            <path id="Tracciato_581" data-name="Tracciato 581" d="M283.6,166.419l-.037-.735c0-.082-.456-8.216-4.407-14.222-5.178-7.866-4.967-15.105-3.125-16.425a2.821,2.821,0,0,1,2.091-.538,2.442,2.442,0,0,1-.026-.621,2.322,2.322,0,0,1,1.878-2.156c6.924-.863,10.036,2.227,11.373,4.516,1.91-7.78,5.729-16.21,9.5-18.236a3.279,3.279,0,0,1,2.891-.256l.623.254-4.137,13.019c2.957-4.057,6.56-7.42,9.308-7.724a2.886,2.886,0,0,1,2.638,1l.341.4-6.775,11.062c2.981-1.814,6.133-3.159,9.87-1.735l1.073.409-.827.8c-.084.081-8.441,8.169-11.2,13.142-2.721,4.91-2.9,16.193-2.9,16.307l-.009.679Zm-5.892-30.494a1.409,1.409,0,0,0-.828.3c-.776.625-1.543,6.787,3.494,14.439,3.507,5.33,4.388,12.011,4.591,14.218l15.346-.9c.081-2.589.541-11.756,3.067-16.315,2.344-4.231,8.3-10.354,10.575-12.615-3.4-.726-6.337,1.192-9.431,3.212l-3.369,2.184,9.516-15.537a1.551,1.551,0,0,0-.979-.167c-2.9.32-8.057,5.773-11.27,11.908l-1.341-.559,5.437-17.11a2.341,2.341,0,0,0-.981.3c-3.256,1.749-7.5,10.675-9.262,19.491l-.737,3.68-.695-3.688c-.053-.274-1.439-6.747-10.688-5.6-.287.035-.57.426-.605.835-.031.353.1.824.881,1.063,4.063,1.24,6.995,3.73,7.471,6.343a3.676,3.676,0,0,1-1.482,3.7c-.493.38-1.381.634-2.813-.31-2.175-1.434-5.313-5.635-4.813-7.574a1.03,1.03,0,0,0-.45-1.1,1.131,1.131,0,0,0-.634-.2m2.527.61a2.391,2.391,0,0,1-.03,1.054c-.228.886,2.044,4.567,4.2,5.992.594.391,1,.467,1.12.373a2.225,2.225,0,0,0,.938-2.283c-.3-1.672-2.348-3.89-6.231-5.136" transform="translate(-141.216 -60.392)"/>
            <path id="Tracciato_582" data-name="Tracciato 582" d="M306.566,212.24l-25.734,1.785a.839.839,0,0,0-.778.87s.262,6.7.591,14.29c.431,9.948.972,21.433.972,21.433a.706.706,0,1,0,1.41-.056s-.378-11.492-.742-21.442c-.221-6.029-.438-11.487-.52-13.486l24.907-1.962a.718.718,0,0,0-.07-1.435l-.036,0" transform="translate(-143.891 -109.057)" fill-rule="evenodd"/>
            <path id="Tracciato_583" data-name="Tracciato 583" d="M123.712,50.847h0l7.182-.49c-.655-1.318.139-3.2,1.4-4.663a6.726,6.726,0,0,0,1.653,4.147l2.747-.483a11.373,11.373,0,0,1,.729-6.6,12.9,12.9,0,0,0,1.736,6.608l8.534-.473a3.337,3.337,0,0,1,.417-3.423,4.919,4.919,0,0,0,2.176,3.428l8.048.016a6.2,6.2,0,0,0,.752-4.891,7.852,7.852,0,0,1,1.592,4.9l2.589.005c1.178-.764,1.7-1.648,1.377-2.689a2.8,2.8,0,0,1,.985,2.694l7.851.015" transform="translate(-63.563 -21.978)" fill="#fbbfa3" fill-rule="evenodd"/>
            <path id="Tracciato_584" data-name="Tracciato 584" d="M123.71,47.736l-.1-1.455,6.288-.429a6.362,6.362,0,0,1,1.8-4.473l1.2-1.394.076,1.841a6.016,6.016,0,0,0,1.218,3.384l1.62-.284a12.054,12.054,0,0,1,.892-6.3l1.439-3.345-.04,3.641a12.181,12.181,0,0,0,1.422,5.846l7.155-.4a4.055,4.055,0,0,1,.807-3.2l1.159-1.48.143,1.874a4,4,0,0,0,1.706,2.755l7.372.014a5.494,5.494,0,0,0,.466-3.975l-.94-3.563,2.226,2.937a8.613,8.613,0,0,1,1.723,4.608l1.655,0c1.185-.838.982-1.49.9-1.743l-.719-2.3,1.874,1.521a3.519,3.519,0,0,1,1.3,2.532l7.079.014,0,1.459-8.731-.017.165-.864a2.088,2.088,0,0,0,.036-.424,4.7,4.7,0,0,1-1.285,1.168l-.182.118-3.547-.007.014-.742a7.119,7.119,0,0,0-.147-1.582,6.915,6.915,0,0,1-.851,1.98l-.215.341-8.7-.017-.2-.154a7.535,7.535,0,0,1-1.7-1.787,2.616,2.616,0,0,0,.225.908l.434.969-10.041.557-.224-.388a13.616,13.616,0,0,1-1.289-3.014,10.675,10.675,0,0,0,.172,2.51l.137.726-3.879.682-.27-.31a7.471,7.471,0,0,1-1.518-2.745,2.863,2.863,0,0,0-.337,2.457l.486.978Z" transform="translate(-63.511 -18.139)"/>
          </g>
        </g>
      </g>
    </g>
    <g id="Raggruppa_6289" data-name="Raggruppa 6289" transform="translate(-193.035 -164)">
      <path id="Tracciato_591" data-name="Tracciato 591" d="M399.228,355.506a1.223,1.223,0,0,1-.236-.022,1.3,1.3,0,0,1-1.042-1.512l1.769-9.572a1.3,1.3,0,1,1,2.552.472l-1.769,9.572a1.3,1.3,0,0,1-1.274,1.062" transform="translate(705.286 -12.4)"/>
      <path id="Tracciato_592" data-name="Tracciato 592" d="M405.235,351.268a1.242,1.242,0,0,1-.236-.022l-9.572-1.769a1.3,1.3,0,0,1,.472-2.552l9.571,1.769a1.3,1.3,0,0,1-.234,2.574" transform="translate(704.949 -12.063)"/>
    </g>
  </g>
</svg>
