<svg xmlns="http://www.w3.org/2000/svg" width="29" height="30" viewBox="0 0 29 30">
  <g id="Raggruppa_6297" data-name="Raggruppa 6297" transform="translate(-1413 -809)">
    <ellipse id="Ellisse_23" data-name="Ellisse 23" cx="14.5" cy="15" rx="14.5" ry="15" transform="translate(1413 809)" fill="#fff"/>
    <path id="Icon_awesome-instagram" data-name="Icon awesome-instagram" d="M8.16,6.1a4.121,4.121,0,0,0-4.185,4.067A4.121,4.121,0,0,0,8.16,14.235a4.121,4.121,0,0,0,4.185-4.067A4.121,4.121,0,0,0,8.16,6.1Zm0,6.71a2.645,2.645,0,1,1,2.721-2.644A2.688,2.688,0,0,1,8.16,12.812Zm5.332-6.877a.977.977,0,1,1-.976-.949A.96.96,0,0,1,13.493,5.935Zm2.772.963a4.621,4.621,0,0,0-1.319-3.323,4.942,4.942,0,0,0-3.42-1.281c-1.348-.074-5.387-.074-6.735,0a4.936,4.936,0,0,0-3.42,1.278A4.636,4.636,0,0,0,.052,6.895c-.076,1.31-.076,5.235,0,6.544a4.621,4.621,0,0,0,1.319,3.323,4.949,4.949,0,0,0,3.42,1.281c1.348.074,5.387.074,6.735,0a4.91,4.91,0,0,0,3.42-1.281,4.651,4.651,0,0,0,1.319-3.323c.076-1.31.076-5.231,0-6.541Zm-1.741,7.946a2.717,2.717,0,0,1-1.552,1.508c-1.075.414-3.624.319-4.812.319a18.646,18.646,0,0,1-4.812-.319A2.717,2.717,0,0,1,1.8,14.844c-.426-1.044-.328-3.522-.328-4.675S1.374,6.534,1.8,5.493A2.717,2.717,0,0,1,3.348,3.985c1.075-.414,3.624-.319,4.812-.319a18.646,18.646,0,0,1,4.812.319,2.717,2.717,0,0,1,1.552,1.508c.426,1.044.328,3.522.328,4.675S14.95,13.8,14.523,14.844Z" transform="translate(1419.363 813.778)" fill="#f55959"/>
  </g>
</svg>
