<svg xmlns="http://www.w3.org/2000/svg" width="30" height="30" viewBox="0 0 30 30">
  <g id="Raggruppa_6296" data-name="Raggruppa 6296" transform="translate(-1461 -809)">
    <circle id="Ellisse_22" data-name="Ellisse 22" cx="15" cy="15" r="15" transform="translate(1461 809)" fill="#fff"/>
    <path id="Icon_awesome-linkedin-in" data-name="Icon awesome-linkedin-in" d="M3.419,15.275H.252V5.077H3.419ZM1.834,3.686A1.843,1.843,0,1,1,3.668,1.835,1.849,1.849,0,0,1,1.834,3.686ZM15.271,15.275h-3.16V10.311c0-1.183-.024-2.7-1.646-2.7-1.646,0-1.9,1.285-1.9,2.615v5.05H5.4V5.077H8.44V6.468h.044a3.328,3.328,0,0,1,3-1.647c3.2,0,3.794,2.111,3.794,4.852v5.6Z" transform="translate(1468.986 815.589)" fill="#f55959"/>
  </g>
</svg>
