<?xml version="1.0" encoding="UTF-8"?>
<svg id="Livello_1" data-name="Livello 1" xmlns="http://www.w3.org/2000/svg" xmlns:xlink="http://www.w3.org/1999/xlink" viewBox="0 0 138.33 67.06">
  <defs>
    <style>
      .cls-1 {
        clip-path: url(#clippath);
      }

      .cls-2 {
        fill: none;
      }

      .cls-2, .cls-3, .cls-4, .cls-5, .cls-6 {
        stroke-width: 0px;
      }

      .cls-4 {
        isolation: isolate;
        opacity: .15;
      }

      .cls-5 {
        fill: #fff;
      }

      .cls-6 {
        fill: #f75959;
      }
    </style>
    <clipPath id="clippath">
      <rect class="cls-2" y="0" width="138.33" height="65.6"/>
    </clipPath>
  </defs>
  <g id="Raggruppa_6307" data-name="Raggruppa 6307">
    <ellipse id="Ellisse_405" data-name="Ellisse 405" class="cls-4" cx="46" cy="64.56" rx="25" ry="2.5"/>
    <g id="Raggruppa_6269" data-name="Raggruppa 6269">
      <g class="cls-1">
        <g id="Raggruppa_6278" data-name="Raggruppa 6278">
          <path id="Tracciato_498" data-name="Tracciato 498" class="cls-6" d="M8.71,48.46c-.11.34-.21.68-.3,1.02s-.17.67-.26.98c-.45,1.45-.9,2.91-1.32,4.39-.43,1.48-.85,2.94-1.28,4.39-.21.91-.78,1.71-1.58,2.2-.85.42-1.82.51-2.73.23-.41-.04-.8-.21-1.11-.49-.17-.21-.19-.63-.04-1.26.9-5.15,2.14-10.23,3.71-15.22,1.53-4.86,3.21-9.68,5.03-14.46.2-.51.4-1.02.6-1.51s.37-.99.51-1.47c.28-.88,1.07-1.51,2-1.58.35-.03.71-.03,1.07-.02.3,0,.6.06.88.17.23.09.43.26.55.47.14.27.17.58.11.87.12.42.11.86-.02,1.28-.13.63-.31,1.33-.56,2.11s-.51,1.57-.81,2.37c-.3.8-.53,1.49-.7,2.09.19-.19.36-.4.51-.62.16-.23.33-.45.51-.66.88-.97,1.74-1.94,2.58-2.92.85-.99,1.75-1.94,2.71-2.84.76-.76,1.66-1.37,2.64-1.79,1.04-.44,2.16-.65,3.28-.64,1.13-.05,2.24.31,3.13,1,.86.75,1.41,1.79,1.56,2.92.17,1.73.13,3.48-.11,5.2-.24,1.8-.68,3.57-1.32,5.27-.63,1.67-1.46,3.26-2.47,4.73-.96,1.41-2.15,2.64-3.54,3.62-1.35.95-2.89,1.59-4.52,1.88-1.82.29-3.69.13-5.44-.45l-1.62-.6c-.54-.2-1.1-.43-1.66-.68M23.47,27.44c-1.55,1.13-2.98,2.4-4.26,3.82-1.25,1.38-2.41,2.84-3.47,4.37-1.07,1.53-2.05,3.12-2.96,4.76-.91,1.64-1.8,3.29-2.69,4.97.53.62,1.18,1.13,1.92,1.48.69.32,1.42.56,2.18.7,1.17.2,2.37-.07,3.35-.75,1.14-.77,2.11-1.75,2.86-2.9.88-1.32,1.61-2.74,2.17-4.22.59-1.52,1.05-3.09,1.36-4.69.29-1.43.41-2.89.36-4.35,0-1.11-.27-2.21-.81-3.18"/>
          <path id="Tracciato_499" data-name="Tracciato 499" class="cls-6" d="M52.12,51.19c-.48.37-.94.71-1.36,1.02s-.87.64-1.32.98c-1.92,1.32-4.28,1.81-6.57,1.36-1.6-.12-2.87-1.42-2.94-3.03-.17-1.31-.07-2.63.28-3.9.36-1.33.91-2.59,1.64-3.75,1.51-2.38,3.63-4.31,6.14-5.59,1.2-.6,2.49-1.01,3.82-1.19,1.31-.19,2.64-.08,3.9.32.75.23,1.47.58,2.12,1.03.63.45,1.11,1.07,1.39,1.79.34.65.36,1.42.04,2.09-.26.64-.82,1.12-1.49,1.28-.35.15-.76.13-1.09-.06-.29-.25-.49-.59-.58-.96-.13-.48-.3-.95-.51-1.41-.36-1.11-1.54-1.73-2.66-1.37-.19.06-.37.15-.54.26-.75.36-1.44.81-2.07,1.34-.63.55-1.22,1.14-1.77,1.77-.84,1.06-1.56,2.2-2.15,3.41-.59,1.21-1,2.51-1.21,3.84-.26,1.34-.15,2.04.32,2.11s1.13-.35,1.98-1.26c1.17-.97,2.31-1.94,3.43-2.92,1.12-.98,2.24-1.97,3.35-2.96.81-.79,1.95-1.16,3.07-.98,1.08.09,1.45.63,1.11,1.62-.17.71-.36,1.41-.58,2.09-.21.68-.42,1.39-.62,2.13-.22.51-.26,1.08-.11,1.62.16.26.43.33.83.24.51-.16.99-.41,1.41-.75.56-.41,1.09-.87,1.58-1.36.5-.5.97-1.02,1.41-1.58.36-.42.64-.9.85-1.41.09-.31.31-.56.6-.7.24-.1.51-.1.75,0,.24.1.43.28.53.51.11.28.11.59,0,.87-.35.93-.87,1.79-1.54,2.54-.67.76-1.4,1.46-2.2,2.09-.74.58-1.53,1.1-2.37,1.54-.65.35-1.34.63-2.05.83-.66.19-1.36.25-2.05.17-.57-.07-1.12-.27-1.6-.6-.44-.32-.78-.75-.98-1.26-.22-.58-.29-1.2-.19-1.81"/>
          <path id="Tracciato_500" data-name="Tracciato 500" class="cls-6" d="M68.67,47.14c.48-.43.96-.87,1.43-1.34.46-.46.95-.9,1.47-1.3,1.11-.85,2.21-1.69,3.3-2.52s2.22-1.65,3.39-2.47c.55-.39,1.18-.67,1.83-.83.66-.16,1.34-.15,2,.02,1,.16,1.81.88,2.07,1.85.16,1.05-.03,2.12-.53,3.05-.85,2.08-1.5,4.24-1.94,6.44-.27,1.62-.2,2.62.21,2.99s1.17.06,2.26-.92c1.61-1.6,3.05-3.37,4.29-5.27.14-.26.36-.48.62-.62.2-.07.41-.09.62-.06.24.02.46.15.58.36.13.21.08.56-.15,1.04-.32.64-.69,1.26-1.09,1.86-.45.68-.94,1.33-1.47,1.94-.53.61-1.09,1.2-1.68,1.75-.52.49-1.08.93-1.68,1.32-1.02.66-2.21,1.01-3.43,1.02-1.11.02-2.18-.38-3-1.14-.91-.93-1.48-2.14-1.62-3.43-.21-2.01.04-4.03.72-5.93.1-.34.23-.67.4-.98.19-.37.35-.75.47-1.15.1-.34.08-.56-.06-.66s-.51.05-1.11.45c-1.16.88-2.26,1.83-3.28,2.86-1.03,1.03-2,2.13-2.9,3.28-.65.77-1.29,1.56-1.9,2.39-.61.82-1.21,1.65-1.8,2.48-.35.53-.84.96-1.41,1.24-.55.24-1.15.35-1.75.34-.63.03-1.25-.17-1.75-.55-.4-.46-.53-1.09-.34-1.66.14-1.11.31-2.2.51-3.28.2-1.09.46-2.17.77-3.24.48-1.51,1.04-3,1.68-4.48.63-1.46,1.41-2.84,2.32-4.14.74-.73,1.74-1.13,2.77-1.11,1.05.06,1.71.27,1.98.64s.22,1.07-.15,2.09c-.4.97-.79,1.94-1.17,2.92s-.73,1.98-1.04,3.01c-.27.52-.48,1.06-.64,1.62.04.02.07.04.11.06.03.03.07.05.11.06"/>
          <path id="Tracciato_501" data-name="Tracciato 501" class="cls-6" d="M104.44,34.6c-.31.48-.63.95-.94,1.41-.34.5-.65,1.01-.94,1.53-1.42,2.64-2.82,5.29-4.18,7.93s-2.74,5.3-4.14,7.97c-.57,1.02-1.13,2.05-1.68,3.09s-1.1,2.07-1.64,3.09c-.2.34-.5.63-.85.81-.37.2-.78.32-1.19.36-.42.04-.84,0-1.24-.11-.64-.12-1.14-.64-1.24-1.28-.06-.24-.06-.49,0-.72.09-.74.18-1.49.28-2.24.1-.76.27-1.51.49-2.24.31-1.14.67-2.26,1.07-3.37s.75-2.22,1.07-3.33c.57-1.71,1.12-3.38,1.64-5.03.53-1.65,1.07-3.31,1.64-4.99.54-1.88.58-3.86.13-5.76-.15-.49-.15-1.02,0-1.51.22-.44.58-.79,1.02-1,.1-.05.2-.11.3-.17.09-.06.19-.1.3-.13.26-.12.53-.22.81-.3.28-.08.56-.14.85-.17.29-.03.58,0,.85.08.3.1.58.26.81.47.47.37.74.95.73,1.56-.03.58-.1,1.16-.21,1.73-.42,2.34-.98,4.66-1.68,6.93-.7,2.23-1.43,4.5-2.2,6.8-.06.14-.09.29-.11.45,0,.2.03.39.11.58.14-.23.27-.45.38-.68.11-.23.24-.45.38-.68,1.19-2.13,2.39-4.25,3.58-6.35,1.19-2.1,2.42-4.18,3.67-6.23.47-.81.99-1.58,1.56-2.32.55-.72,1.12-1.41,1.68-2.07.46-.7,1.17-1.2,1.98-1.41.81-.23,1.66-.2,2.45.08.32.15.59.39.79.68.19.31.24.68.15,1.02-.12.44-.21.88-.28,1.32-.07.45-.16.91-.28,1.36-.48,1.79-.97,3.56-1.47,5.31-.5,1.75-.99,3.52-1.48,5.31-.07.19-.1.38-.11.58-.01.25.02.51.11.75l.34-.51c.12-.19.22-.39.3-.6,1.62-2.62,3.31-5.15,5.07-7.59,1.79-2.48,3.71-4.85,5.76-7.12.5-.57,1.12-1.03,1.81-1.34.7-.28,1.46-.37,2.2-.28.57.05,1.1.33,1.47.77.31.51.38,1.14.19,1.71-.11.63-.26,1.25-.43,1.88-.17.62-.37,1.25-.6,1.88-.74,2.19-1.49,4.35-2.26,6.48s-1.52,4.29-2.26,6.49c-.31,1.08-.6,2.17-.87,3.26-.27,1.09-.49,2.21-.66,3.35-.14.79-.19,1.59-.15,2.39.04.8.09,1.58.15,2.35.06.4.17.79.34,1.16.19.39.51.71.9.9.16.13.29.29.4.47.13.2.16.33.11.38-.07.21-.19.41-.36.56-.12.13-.27.22-.45.25-.4,0-.82-.02-1.26-.06-.41-.03-.8-.17-1.13-.4-.97-.63-1.8-1.44-2.45-2.39-.66-.99-1.06-2.14-1.17-3.33-.14-1.33-.14-2.68,0-4.01.15-1.33.4-2.64.77-3.92.48-1.88,1.08-3.73,1.81-5.52.73-1.78,1.46-3.56,2.2-5.35.14-.3.26-.61.36-.92.1-.3.18-.61.24-.92-.11.14-.24.27-.38.38-.14.11-.27.24-.38.38-1.68,2.13-3.26,4.34-4.75,6.61s-2.88,4.63-4.16,7.08c-.31.65-.6,1.31-.87,1.96-.27.65-.55,1.31-.83,1.96-.18.61-.48,1.18-.9,1.66-.41.29-.92.4-1.41.3-.7-.12-1.35-.42-1.9-.87-.53-.45-.84-1.1-.87-1.79-.03-.74-.03-1.47,0-2.2.03-.73.13-1.45.3-2.15.43-1.88.88-3.72,1.36-5.54s.98-3.65,1.49-5.5c.06-.22.1-.45.13-.68.02-.19.06-.38.13-.55-.1-.05-.2-.11-.3-.17"/>
          <path id="Tracciato_502" data-name="Tracciato 502" class="cls-6" d="M128.07,47.99c-.34,1.07-.44,2.21-.3,3.33.17.68.5,1.06.98,1.13.64.03,1.28-.14,1.81-.49.76-.42,1.49-.91,2.18-1.45.73-.57,1.41-1.16,2.07-1.77.65-.61,1.17-1.1,1.54-1.47.63-.62,1.09-.89,1.41-.81.28.05.5.27.55.56.05.24,0,.48-.13.68-.12.19-.25.38-.38.55-.77.88-1.51,1.71-2.22,2.5-.68.75-1.42,1.44-2.22,2.07-.76.59-1.58,1.09-2.45,1.49-.9.41-1.86.67-2.84.77-1.33.22-2.69.12-3.97-.3-.93-.33-1.73-.94-2.3-1.75-.53-.82-.82-1.77-.85-2.75-.05-1.11.06-2.21.34-3.28.3-1.16.73-2.28,1.28-3.35.54-1.06,1.21-2.05,2-2.94,1.02-1.15,2.27-2.07,3.67-2.71,1.36-.61,2.87-.81,4.35-.58.85.08,1.64.48,2.22,1.11.54.68.81,1.53.77,2.39,0,.76-.15,1.51-.47,2.2-.33.7-.78,1.34-1.32,1.9-.63.72-1.39,1.32-2.24,1.77-1.11.54-2.27.94-3.48,1.21M128.79,45.87c1.12-.58,2.16-1.32,3.07-2.2.68-.56,1.15-1.34,1.32-2.2.1-.48.04-.97-.17-1.41-.18-.2-.47-.27-.73-.17-.51.18-.95.52-1.26.96-.4.52-.74,1.08-1.02,1.66-.29.6-.55,1.22-.77,1.86-.21.63-.36,1.12-.45,1.49"/>
          <path id="Tracciato_503" data-name="Tracciato 503" class="cls-6" d="M26.68,51.17L45.68.68l5.67,2.06c-3.13,8.63-6.18,17.63-9.17,26.99-2.63,8.28-5.04,16.36-7.23,24.25-.72.61-7.62-3.74-8.26-2.81"/>
          <path id="Tracciato_504" data-name="Tracciato 504" class="cls-6" d="M25.94,51.24c2.12-7.77,4.85-16.43,8.14-25.25,3.5-9.38,7.24-17.89,10.96-25.53.06-.17.18-.31.34-.39.16-.08.35-.09.52-.04l5.67,2.06c.36.12.55.51.43.87,0,0,0,0,0,0-3.39,8.06-6.75,17-9.82,26.76-2.71,8.61-4.63,16.36-6.35,24.02-.01.04-9.89-2.51-9.89-2.51"/>
          <path id="Tracciato_505" data-name="Tracciato 505" class="cls-5" d="M46.38,2.5l2.91.98c-3.36,7.76-6.67,16.28-9.74,25.54-2.54,7.67-4.77,15.19-6.5,22.13-.52-.76-.86-2.11-3.56-.93,1.63-7.64,3.71-15.18,6.24-22.57,2.94-8.63,6.5-17.03,10.64-25.15"/>
          <path id="Tracciato_506" data-name="Tracciato 506" class="cls-5" d="M35.2,53.49l-6.8,11.43-1.75-13.2,1.2-1.5,1.34,2.07,2.11-1.36,1.17,2.42,2.22-1.71.5,1.86h0Z"/>
          <path id="Tracciato_507" data-name="Tracciato 507" class="cls-6" d="M28.68,65.55c-.35.15-.75-.02-.9-.37-.02-.06-.04-.11-.05-.17l-1.76-13.2c-.03-.18-.09-.57.03-.72l1.31-1.3c.24-.29.66-.34.96-.11.06.05.11.1.15.16l.97,1.5,1.54-.98c.32-.2.74-.11.94.21.01.02.03.05.04.07l.81,1.66,1.55-1.2c.3-.23.73-.17.96.12.05.07.09.15.12.24l.53,1.33c.04.36,0,.72-.11,1.06l-.02.03-6.77,11.39c-.07.13-.19.22-.32.28M27.38,51.92l1.45,10.96,5.64-9.49-.16-.59-1.41,1.08c-.3.23-.73.17-.96-.13-.03-.04-.05-.08-.07-.12l-.84-1.72-1.47.94c-.31.2-.74.11-.94-.2l-.83-1.27-.42.53Z"/>
          <path id="Tracciato_508" data-name="Tracciato 508" class="cls-3" d="M27.98,56.8l3.91.97-3.12,5.23-.78-6.2Z"/>
        </g>
      </g>
    </g>
  </g>
</svg>