<svg xmlns="http://www.w3.org/2000/svg" xmlns:xlink="http://www.w3.org/1999/xlink" width="138.326" height="67.061" viewBox="0 0 138.326 67.061">
  <defs>
    <clipPath id="clip-path">
      <rect id="Rettangolo_6181" data-name="Rettangolo 6181" width="138.326" height="65.603" fill="none"/>
    </clipPath>
  </defs>
  <g id="Raggruppa_6307" data-name="Raggruppa 6307" transform="translate(-455 -20.47)">
    <ellipse id="Ellisse_405" data-name="Ellisse 405" cx="25" cy="2.5" rx="25" ry="2.5" transform="translate(476 82.53)" opacity="0.154"/>
    <g id="Raggruppa_6269" data-name="Raggruppa 6269" transform="translate(455 20.47)">
      <g id="Raggruppa_6278" data-name="Raggruppa 6278" transform="translate(0 0)" clip-path="url(#clip-path)">
        <path id="Tracciato_498" data-name="Tracciato 498" d="M8.711,64.938q-.171.512-.3,1.023t-.256.981q-.682,2.175-1.322,4.392T5.556,75.726a3.512,3.512,0,0,1-1.578,2.2,3.717,3.717,0,0,1-2.729.234,1.918,1.918,0,0,1-1.108-.49q-.256-.32-.043-1.259a120.38,120.38,0,0,1,3.71-15.223q2.3-7.292,5.032-14.456.3-.768.6-1.514t.512-1.471a2.275,2.275,0,0,1,2-1.578,9.3,9.3,0,0,1,1.066-.021,2.621,2.621,0,0,1,.875.171,1.129,1.129,0,0,1,.554.469,1.3,1.3,0,0,1,.107.874,2.251,2.251,0,0,1-.021,1.279q-.192.939-.555,2.111t-.811,2.366q-.448,1.194-.7,2.09a4.138,4.138,0,0,0,.512-.618,6.348,6.348,0,0,1,.511-.661q1.322-1.449,2.58-2.921a36.03,36.03,0,0,1,2.708-2.836,8.352,8.352,0,0,1,2.644-1.791,8.253,8.253,0,0,1,3.283-.64,4.767,4.767,0,0,1,3.134,1,4.7,4.7,0,0,1,1.557,2.921,22.146,22.146,0,0,1-.107,5.2,23.611,23.611,0,0,1-1.322,5.267,22.039,22.039,0,0,1-2.473,4.734,14.345,14.345,0,0,1-3.539,3.625,11.165,11.165,0,0,1-4.521,1.876,11.567,11.567,0,0,1-5.436-.448l-1.62-.6q-.811-.3-1.664-.682M23.465,43.914A28.343,28.343,0,0,0,19.2,47.731,42.989,42.989,0,0,0,15.726,52.1q-1.6,2.3-2.964,4.755t-2.686,4.968A5.676,5.676,0,0,0,11.995,63.3a9.419,9.419,0,0,0,2.175.7,4.54,4.54,0,0,0,3.347-.747,10.3,10.3,0,0,0,2.857-2.9,21.085,21.085,0,0,0,2.174-4.222,27.212,27.212,0,0,0,1.364-4.691,18.821,18.821,0,0,0,.363-4.349,6.476,6.476,0,0,0-.811-3.177" transform="translate(0 -16.477)" fill="#f75959"/>
        <path id="Tracciato_499" data-name="Tracciato 499" d="M77.8,75.046q-.726.555-1.364,1.023t-1.322.981a8.639,8.639,0,0,1-6.567,1.364,3.188,3.188,0,0,1-2.942-3.027,9.861,9.861,0,0,1,.277-3.9,13.767,13.767,0,0,1,1.642-3.753,15.691,15.691,0,0,1,6.141-5.587,12.291,12.291,0,0,1,3.817-1.194,8.851,8.851,0,0,1,3.9.32A7.915,7.915,0,0,1,83.5,62.3a3.929,3.929,0,0,1,1.386,1.791,2.351,2.351,0,0,1,.042,2.089,2.166,2.166,0,0,1-1.492,1.279,1.2,1.2,0,0,1-1.087-.064,1.872,1.872,0,0,1-.576-.959,9.069,9.069,0,0,0-.511-1.407,2.115,2.115,0,0,0-3.2-1.109,9.408,9.408,0,0,0-2.068,1.343,17.421,17.421,0,0,0-1.77,1.769,18.817,18.817,0,0,0-2.154,3.412,13.906,13.906,0,0,0-1.215,3.838q-.384,2.006.32,2.111t1.982-1.258q1.748-1.449,3.433-2.921t3.348-2.964a3.6,3.6,0,0,1,3.071-.98q1.62.128,1.108,1.62-.255,1.066-.576,2.089t-.618,2.132a2.426,2.426,0,0,0-.107,1.62q.234.384.832.235a4.242,4.242,0,0,0,1.408-.747,13.86,13.86,0,0,0,1.578-1.364,18.056,18.056,0,0,0,1.407-1.578,5.27,5.27,0,0,0,.852-1.408,1.129,1.129,0,0,1,.6-.7.972.972,0,0,1,.745,0,.991.991,0,0,1,.533.512,1.156,1.156,0,0,1,0,.874,8.234,8.234,0,0,1-1.535,2.537,15.906,15.906,0,0,1-2.2,2.089,15.175,15.175,0,0,1-2.367,1.535,9.758,9.758,0,0,1-2.047.832,5.168,5.168,0,0,1-2.047.17,3.538,3.538,0,0,1-1.6-.6A2.788,2.788,0,0,1,78,76.858a3.581,3.581,0,0,1-.192-1.812" transform="translate(-25.683 -23.857)" fill="#f75959"/>
        <path id="Tracciato_500" data-name="Tracciato 500" d="M108.22,70.818q.724-.639,1.429-1.343a15.872,15.872,0,0,1,1.471-1.3q1.664-1.28,3.3-2.516t3.39-2.473a5.349,5.349,0,0,1,1.834-.831,4.158,4.158,0,0,1,2,.021,2.551,2.551,0,0,1,2.068,1.855,4.84,4.84,0,0,1-.533,3.049,35.467,35.467,0,0,0-1.94,6.44q-.407,2.431.213,2.985t2.26-.917a32.465,32.465,0,0,0,4.286-5.267,1.553,1.553,0,0,1,.618-.618,1.272,1.272,0,0,1,.618-.064.729.729,0,0,1,.576.362q.192.32-.15,1.045a17.969,17.969,0,0,1-1.087,1.855,18.767,18.767,0,0,1-1.471,1.94,21.711,21.711,0,0,1-1.684,1.749,11.725,11.725,0,0,1-1.685,1.322,6.467,6.467,0,0,1-3.432,1.023A4.293,4.293,0,0,1,117.3,78a5.778,5.778,0,0,1-1.62-3.432,13.455,13.455,0,0,1,.725-5.928,5.3,5.3,0,0,1,.4-.981,7.12,7.12,0,0,0,.469-1.151c.1-.342.078-.561-.064-.661s-.512.05-1.108.448a31.575,31.575,0,0,0-3.284,2.857,35.669,35.669,0,0,0-2.9,3.283q-.982,1.151-1.9,2.388T106.216,77.3a3.552,3.552,0,0,1-1.407,1.237,4.257,4.257,0,0,1-1.749.341,2.666,2.666,0,0,1-1.748-.554,1.721,1.721,0,0,1-.342-1.664q.214-1.663.512-3.283a33.3,33.3,0,0,1,.768-3.241q.725-2.26,1.684-4.478a22.647,22.647,0,0,1,2.324-4.136,3.855,3.855,0,0,1,2.772-1.108q1.578.086,1.983.639t-.15,2.09q-.6,1.45-1.172,2.921t-1.045,3.007a8.379,8.379,0,0,0-.64,1.62.51.51,0,0,1,.106.064.455.455,0,0,0,.107.064" transform="translate(-39.553 -23.68)" fill="#f75959"/>
        <path id="Tracciato_501" data-name="Tracciato 501" d="M160.115,51.526q-.471.726-.938,1.407a17.968,17.968,0,0,0-.938,1.535q-2.133,3.967-4.179,7.932t-4.136,7.974q-.854,1.536-1.684,3.092T146.6,76.557a2.143,2.143,0,0,1-.853.811,3.178,3.178,0,0,1-1.194.362,3.291,3.291,0,0,1-1.237-.106,1.546,1.546,0,0,1-1.236-1.28,1.552,1.552,0,0,1,0-.725q.128-1.108.277-2.239a13.871,13.871,0,0,1,.491-2.238q.47-1.706,1.066-3.369t1.066-3.327q.852-2.558,1.642-5.032t1.642-4.99a11.263,11.263,0,0,0,.128-5.757,2.68,2.68,0,0,1,0-1.513,2.233,2.233,0,0,1,1.023-1,2.847,2.847,0,0,0,.3-.171.956.956,0,0,1,.3-.128,6.888,6.888,0,0,1,.811-.3,4.506,4.506,0,0,1,.852-.171,2.2,2.2,0,0,1,.854.085,2.172,2.172,0,0,1,.81.469,1.91,1.91,0,0,1,.725,1.557,11.713,11.713,0,0,1-.213,1.727,56.694,56.694,0,0,1-1.684,6.929q-1.046,3.349-2.2,6.8a1.553,1.553,0,0,0-.107.448,1.324,1.324,0,0,0,.107.576q.213-.341.383-.682t.384-.682q1.791-3.2,3.583-6.354t3.667-6.226a23.012,23.012,0,0,1,1.557-2.324q.832-1.087,1.684-2.068a3.4,3.4,0,0,1,1.983-1.408,4.021,4.021,0,0,1,2.452.085,1.969,1.969,0,0,1,.789.683,1.308,1.308,0,0,1,.15,1.023,12.679,12.679,0,0,0-.277,1.322q-.107.682-.277,1.364-.725,2.687-1.471,5.309T163.1,59.329a1.879,1.879,0,0,0-.107.576,1.985,1.985,0,0,0,.107.746l.341-.511a2.973,2.973,0,0,0,.3-.6q2.431-3.923,5.075-7.59a84,84,0,0,1,5.756-7.122,5.235,5.235,0,0,1,1.813-1.343,4.409,4.409,0,0,1,2.2-.277,2.2,2.2,0,0,1,1.471.767,2.019,2.019,0,0,1,.192,1.706q-.171.939-.427,1.876t-.6,1.876q-1.109,3.285-2.26,6.482T174.7,62.4q-.47,1.622-.874,3.262t-.662,3.348a10.381,10.381,0,0,0-.149,2.388q.064,1.194.149,2.345A4.145,4.145,0,0,0,173.5,74.9a1.952,1.952,0,0,0,.9.9,1.938,1.938,0,0,1,.4.469c.128.2.164.327.107.384a1.23,1.23,0,0,1-.363.555.773.773,0,0,1-.448.255q-.6,0-1.257-.064a2.253,2.253,0,0,1-1.13-.4,8.724,8.724,0,0,1-2.452-2.388,7.219,7.219,0,0,1-1.173-3.326,18.877,18.877,0,0,1,0-4.009,23.922,23.922,0,0,1,.768-3.923,41.878,41.878,0,0,1,1.812-5.522q1.088-2.665,2.2-5.352a9.564,9.564,0,0,0,.362-.917,6.665,6.665,0,0,0,.235-.917,2.414,2.414,0,0,1-.384.384,2.439,2.439,0,0,0-.384.384q-2.515,3.2-4.754,6.609t-4.158,7.079q-.469.981-.874,1.962t-.832,1.962a4.466,4.466,0,0,1-.9,1.663,1.832,1.832,0,0,1-1.408.3,4.1,4.1,0,0,1-1.9-.874A2.452,2.452,0,0,1,157,68.328q-.043-1.109,0-2.2a11.052,11.052,0,0,1,.3-2.154q.639-2.815,1.364-5.543t1.493-5.5a5.8,5.8,0,0,0,.128-.682,2.258,2.258,0,0,1,.128-.554,2.82,2.82,0,0,1-.3-.171" transform="translate(-55.672 -16.925)" fill="#f75959"/>
        <path id="Tracciato_502" data-name="Tracciato 502" d="M206.024,72.051a7.813,7.813,0,0,0-.3,3.326q.257,1.023.981,1.13a3.022,3.022,0,0,0,1.812-.49,15.937,15.937,0,0,0,2.175-1.45q1.088-.853,2.069-1.77t1.535-1.471q.938-.937,1.408-.81a.7.7,0,0,1,.555.555.861.861,0,0,1-.128.682,6.194,6.194,0,0,1-.384.554q-1.152,1.322-2.217,2.5a17.662,17.662,0,0,1-2.217,2.068,12.415,12.415,0,0,1-2.452,1.492,9.163,9.163,0,0,1-2.836.768,8.264,8.264,0,0,1-3.966-.3,4.725,4.725,0,0,1-2.3-1.748,5.374,5.374,0,0,1-.852-2.751,10.956,10.956,0,0,1,.34-3.284,15.932,15.932,0,0,1,1.28-3.347,13.742,13.742,0,0,1,2-2.942,10.97,10.97,0,0,1,3.667-2.708,7.678,7.678,0,0,1,4.35-.576,3.462,3.462,0,0,1,2.218,1.108,3.547,3.547,0,0,1,.767,2.388,5.119,5.119,0,0,1-.469,2.2,7.157,7.157,0,0,1-1.322,1.9,7.826,7.826,0,0,1-2.239,1.77,16.069,16.069,0,0,1-3.475,1.215m.725-2.132a13.288,13.288,0,0,0,3.071-2.2,3.819,3.819,0,0,0,1.322-2.2,2.2,2.2,0,0,0-.171-1.407.652.652,0,0,0-.725-.17,2.613,2.613,0,0,0-1.258.959,9.634,9.634,0,0,0-1.023,1.664,16.044,16.044,0,0,0-.768,1.855q-.319.938-.448,1.493" transform="translate(-77.957 -24.06)" fill="#f75959"/>
        <path id="Tracciato_503" data-name="Tracciato 503" d="M43.879,51.607l19-50.483L68.549,3.18q-4.691,12.946-9.172,26.985-3.946,12.417-7.234,24.25c-.724.612-7.623-3.739-8.264-2.809" transform="translate(-17.199 -0.441)" fill="#f75959"/>
        <path id="Tracciato_504" data-name="Tracciato 504" d="M42.663,51.236c2.121-7.772,4.848-16.433,8.14-25.248C54.3,16.612,58.039,8.094,61.759.463A.694.694,0,0,1,62.1.071a.678.678,0,0,1,.522-.035l5.667,2.056a.683.683,0,0,1,.427.867c-3.394,8.061-6.747,17-9.819,26.765-2.709,8.615-4.627,16.359-6.349,24.017-.013.038-9.888-2.506-9.888-2.506" transform="translate(-16.722 0)" fill="#f75959"/>
        <path id="Tracciato_505" data-name="Tracciato 505" d="M65.4,4.106l2.911.979c-3.359,7.756-6.67,16.278-9.735,25.538-2.539,7.672-4.771,15.194-6.5,22.134-.523-.757-.864-2.114-3.558-.932a197.087,197.087,0,0,1,6.24-22.572A190.72,190.72,0,0,1,65.4,4.106" transform="translate(-19.016 -1.609)" fill="#fff"/>
        <path id="Tracciato_506" data-name="Tracciato 506" d="M52.388,85.865,45.593,97.29l-1.751-13.2,1.2-1.5,1.344,2.067L48.5,83.3l1.174,2.415,2.218-1.71.5,1.855Z" transform="translate(-17.185 -32.37)" fill="#fff"/>
        <path id="Tracciato_507" data-name="Tracciato 507" d="M45.4,97.48a.684.684,0,0,1-.943-.54L42.7,83.74c-.025-.184-.089-.573.027-.718l1.313-1.3a.683.683,0,0,1,1.107.054l.974,1.5,1.543-.984a.683.683,0,0,1,.982.278l.807,1.659,1.554-1.2a.683.683,0,0,1,1.076.363l.53,1.332a2.563,2.563,0,0,1-.108,1.06l-.016.026L45.718,97.2a.683.683,0,0,1-.321.28M44.1,83.848,45.55,94.81l5.642-9.488-.158-.586-1.408,1.085a.684.684,0,0,1-1.032-.243l-.838-1.725-1.468.936a.68.68,0,0,1-.94-.2l-.826-1.272Z" transform="translate(-16.722 -31.93)" fill="#f75959"/>
        <path id="Tracciato_508" data-name="Tracciato 508" d="M46.015,93.423l3.908.967L46.8,99.621Z" transform="translate(-18.036 -36.618)"/>
      </g>
    </g>
  </g>
</svg>
